<svg version="1.1" viewBox="0.0 0.0 960.0 720.0" fill="none" stroke="none" stroke-linecap="square" stroke-miterlimit="10" xmlns:xlink="http://www.w3.org/1999/xlink" xmlns="http://www.w3.org/2000/svg"><clipPath id="p.0"><path d="m0 0l960.0 0l0 720.0l-960.0 0l0 -720.0z" clip-rule="nonzero"/></clipPath><g clip-path="url(#p.0)"><path fill="#000000" fill-opacity="0.0" d="m0 0l960.0 0l0 720.0l-960.0 0z" fill-rule="evenodd"/><path fill="#000000" fill-opacity="0.0" d="m493.63397 186.64456l3.50589 0.50587463l3.5059204 0.48564148l3.50589 0.5058594l3.50589 1.4771576l2.9933472 1.4771423l3.0138855 1.4771576l2.9933472 1.983017l2.5012817 2.4686584l2.0092163 2.4686584l2.0092163 2.974533l2.0092163 2.4686584l1.4967041 2.9543l1.0045776 3.4601593l0.98413086 2.974533l0.51257324 3.4601746l0.49206543 3.4601593l-0.49206543 1.9830322l-1.0046387 1.4771423l-1.4966431 0.9915161l-2.0092163 0.48564148l-2.0092773 -0.48564148l-1.4966431 -0.9915161l-1.0046387 -1.4771423l-0.49206543 -1.9830322l-0.5125122 -4.4516754l-1.4967041 -4.937317l-2.5012817 -3.966034l-2.9933472 -3.945816l-4.018463 -2.9543l-4.5105286 -2.4888916l-5.0025635 -1.4771423l-5.0025635 -0.48564148l-2.0092468 0l-1.4966736 -1.4973755l-1.0046082 -1.4771576l-0.49206543 -1.9627838l0.49206543 -1.983017l1.0046082 -1.4771576l1.4966736 -0.99150085l2.0092468 -0.50587463zm22.019531 -15.317825l-6.007202 0.50587463l-6.499237 0.48564148l-6.007202 1.4771423l-9.021027 2.4686584l-5.002594 1.4973755l-4.510498 1.9627991l-3.9979858 2.4686584l-3.50589 2.4888916l-54.5773 54.350967l-159.24185 -42.99919l-2.993332 -0.48564148l-2.5012817 0.48564148l-2.5217896 0.9915161l-2.501297 1.4771423l-15.007721 15.338058l-1.5171814 1.9627991l-0.9841156 1.983017l-0.512558 2.4686584l0 1.983017l0.512558 1.9627838l0.49206543 1.4973907l2.0092316 2.9543l1.9887238 1.4973755l117.171005 75.111984l-66.591675 86.48398l-66.591675 -11.372009l-2.0092316 0l-2.5012817 0.5058899l-2.0092316 0.97125244l-1.988739 1.497406l-7.5243683 7.4059753l-1.4966736 1.9830017l-1.0046082 2.4686584l-0.49206543 2.4686584l0 2.4686584l1.0046234 2.9745483l1.9887238 2.9542847l2.0092316 1.4771423l65.58707 36.078857l36.555695 64.75171l1.5171814 1.9627686l2.9933472 1.9830017l3.013855 0.9915161l2.5012817 0l2.5012817 -0.4855957l2.5012817 -0.9915161l2.0092468 -1.497406l7.5038757 -7.4059753l1.4966736 -1.9830017l1.0046082 -1.9627991l0.5125427 -2.4686584l0 -1.9830322l-11.522308 -65.72296l87.627075 -65.743225l76.10477 115.64249l1.4966736 1.9830322l3.013855 1.9830322l1.4966736 0.48562622l2.0092468 0.5058899l2.0092163 0l2.5012817 -0.5058899l1.988739 -0.9915161l2.0092468 -1.4771423l15.520264 -14.832184l1.4967041 -2.4686584l1.0045776 -2.4686584l0.51257324 -2.4686584l-0.51257324 -2.9745178l-43.567505 -157.14432l55.089844 -53.865326l2.5012817 -3.4601593l2.5012817 -3.9660492l2.0092773 -4.4314423l1.4966431 -4.95755l2.5012817 -8.883133l1.5172119 -5.9288177l0.4920044 -6.4347076l0.49206543 -5.9288177l0 -4.937332l0 -4.937317l-0.9840698 -3.966034l-1.5172119 -3.4601746l-1.4966431 -3.4601593l-2.0092773 -2.4686584l-2.5012817 -1.9627991l-3.5058594 -1.4973755l-3.5059204 -1.4771423l-3.9979858 -0.9915161z" fill-rule="evenodd"/><path stroke="#ffffff" stroke-width="1.0" stroke-linejoin="round" stroke-linecap="butt" d="m493.63397 186.64456l3.50589 0.50587463l3.5059204 0.48564148l3.50589 0.5058594l3.50589 1.4771576l2.9933472 1.4771423l3.0138855 1.4771576l2.9933472 1.983017l2.5012817 2.4686584l2.0092163 2.4686584l2.0092163 2.974533l2.0092163 2.4686584l1.4967041 2.9543l1.0045776 3.4601593l0.98413086 2.974533l0.51257324 3.4601746l0.49206543 3.4601593l-0.49206543 1.9830322l-1.0046387 1.4771423l-1.4966431 0.9915161l-2.0092163 0.48564148l-2.0092773 -0.48564148l-1.4966431 -0.9915161l-1.0046387 -1.4771423l-0.49206543 -1.9830322l-0.5125122 -4.4516754l-1.4967041 -4.937317l-2.5012817 -3.966034l-2.9933472 -3.945816l-4.018463 -2.9543l-4.5105286 -2.4888916l-5.0025635 -1.4771423l-5.0025635 -0.48564148l-2.0092468 0l-1.4966736 -1.4973755l-1.0046082 -1.4771576l-0.49206543 -1.9627838l0.49206543 -1.983017l1.0046082 -1.4771576l1.4966736 -0.99150085l2.0092468 -0.50587463zm22.019531 -15.317825l-6.007202 0.50587463l-6.499237 0.48564148l-6.007202 1.4771423l-9.021027 2.4686584l-5.002594 1.4973755l-4.510498 1.9627991l-3.9979858 2.4686584l-3.50589 2.4888916l-54.5773 54.350967l-159.24185 -42.99919l-2.993332 -0.48564148l-2.5012817 0.48564148l-2.5217896 0.9915161l-2.501297 1.4771423l-15.007721 15.338058l-1.5171814 1.9627991l-0.9841156 1.983017l-0.512558 2.4686584l0 1.983017l0.512558 1.9627838l0.49206543 1.4973907l2.0092316 2.9543l1.9887238 1.4973755l117.171005 75.111984l-66.591675 86.48398l-66.591675 -11.372009l-2.0092316 0l-2.5012817 0.5058899l-2.0092316 0.97125244l-1.988739 1.497406l-7.5243683 7.4059753l-1.4966736 1.9830017l-1.0046082 2.4686584l-0.49206543 2.4686584l0 2.4686584l1.0046234 2.9745483l1.9887238 2.9542847l2.0092316 1.4771423l65.58707 36.078857l36.555695 64.75171l1.5171814 1.9627686l2.9933472 1.9830017l3.013855 0.9915161l2.5012817 0l2.5012817 -0.4855957l2.5012817 -0.9915161l2.0092468 -1.497406l7.5038757 -7.4059753l1.4966736 -1.9830017l1.0046082 -1.9627991l0.5125427 -2.4686584l0 -1.9830322l-11.522308 -65.72296l87.627075 -65.743225l76.10477 115.64249l1.4966736 1.9830322l3.013855 1.9830322l1.4966736 0.48562622l2.0092468 0.5058899l2.0092163 0l2.5012817 -0.5058899l1.988739 -0.9915161l2.0092468 -1.4771423l15.520264 -14.832184l1.4967041 -2.4686584l1.0045776 -2.4686584l0.51257324 -2.4686584l-0.51257324 -2.9745178l-43.567505 -157.14432l55.089844 -53.865326l2.5012817 -3.4601593l2.5012817 -3.9660492l2.0092773 -4.4314423l1.4966431 -4.95755l2.5012817 -8.883133l1.5172119 -5.9288177l0.4920044 -6.4347076l0.49206543 -5.9288177l0 -4.937332l0 -4.937317l-0.9840698 -3.966034l-1.5172119 -3.4601746l-1.4966431 -3.4601593l-2.0092773 -2.4686584l-2.5012817 -1.9627991l-3.5058594 -1.4973755l-3.5059204 -1.4771423l-3.9979858 -0.9915161z" fill-rule="evenodd"/></g></svg>