<svg version="1.1" viewBox="0.0 0.0 960.0 540.0" fill="none" stroke="none" stroke-linecap="square" stroke-miterlimit="10" xmlns:xlink="http://www.w3.org/1999/xlink" xmlns="http://www.w3.org/2000/svg"><clipPath id="g35f391192_073.0"><path d="m0 0l960.0 0l0 540.0l-960.0 0l0 -540.0z" clip-rule="nonzero"/></clipPath><g clip-path="url(#g35f391192_073.0)"><defs><linearGradient id="g35f391192_073.1" gradientUnits="userSpaceOnUse" gradientTransform="matrix(23.242106579261463 0.0 0.0 23.242106579261463 0.0 0.0)" spreadMethod="pad" x1="1.7130817638910854E-6" y1="-0.008411760736123021" x2="-0.004731615683309229" y2="23.23369433654662"><stop offset="0.0" stop-color="#4780ea"/><stop offset="0.58" stop-color="#3ab1f5"/><stop offset="0.9" stop-color="#2ce1ff"/><stop offset="1.0" stop-color="#2ce1ff"/></linearGradient></defs><path fill="url(#g35f391192_073.1)" d="m0 0l960.0 0l0 540.0l-960.0 0z" fill-rule="evenodd"/><defs><linearGradient id="g35f391192_073.2" gradientUnits="userSpaceOnUse" gradientTransform="matrix(7.754077818182177 0.0 0.0 7.754077818182177 0.0 0.0)" spreadMethod="pad" x1="7.204752752114259" y1="5.973238320721192" x2="7.204724985418701" y2="13.727316138853654"><stop offset="0.0" stop-color="#ffffff" stop-opacity="0.5254902"/><stop offset="1.0" stop-color="#ffffff" stop-opacity="0.7490196"/></linearGradient></defs><path fill="url(#g35f391192_073.2)" d="m126.315575 46.317513l-3.7950592 0.15234375l-3.6454391 0.45703888l-3.490364 0.7590141l-3.4930878 1.0609818l-3.3407364 1.3684006l-3.1883926 1.5180206l-2.8837051 1.9723434l-2.8864212 1.9750633l-2.7313538 2.2770348l-2.4293823 2.58173l-2.277031 2.581726l-1.9750671 2.8837051l-1.8227158 3.0360413l-1.5180206 3.1884003l-1.3656769 3.3407364l-1.0637054 3.4930878l-1.5180283 -0.45703888l-1.6703644 -0.30197144l-1.670372 -0.30469513l-1.8199997 0l-2.2797546 0.15234375l-2.1246872 0.30197906l-2.1246872 0.45703888l-1.9750671 0.7590103l-1.9723434 0.91135406l-1.8227158 1.2133331l-1.6703682 1.2160492l-1.5180244 1.3656769l-1.3656769 1.5180283l-1.216053 1.6703644l-1.2133293 1.8227234l-0.9113579 1.9723358l-0.7590103 1.9750671l-0.45703888 2.1246872l-0.30197525 2.127411l-0.15234375 2.2770386l0 1.6703644l0.30197144 1.8199997l0.3046913 1.5180206l0.454319 1.670372l151.37798 0l0 -0.60666656l0 -1.2133331l-0.30470276 -1.0637054l-0.15234375 -1.2160492l-0.4543152 -1.0609818l-0.4570465 -0.9113617l-0.60665894 -0.91135406l-0.6066742 -0.9113617l-0.7590027 -0.91135406l-0.9113617 -0.7590103l-0.9113617 -0.60666656l-0.91134644 -0.60666656l-0.9113617 -0.45703888l-1.0609894 -0.45432281l-1.2160492 -0.15234375l-1.0637054 -0.30469513l-1.2133331 0l-1.8227081 0.15235138l-1.6703796 0.3046875l-1.5180206 0.60666656l-1.3656769 0.9113617l-0.75901794 -1.5180283l-0.91134644 -1.3656769l-0.9113617 -1.368393l-1.0609894 -1.2133331l-1.0637054 -1.2160492l-1.2160492 -1.0609894l-1.2133331 -1.0637054l-1.3656769 -0.91135406l-1.368393 -0.9113617l-1.5180206 -0.7590103l-1.5180206 -0.60666656l-1.6703796 -0.4543152l-1.5180206 -0.45703888l-1.6703644 -0.30197144l-1.8227234 -0.30469513l-1.8199921 0l-0.75901794 -3.7950592l-1.2160492 -3.6454315l-1.3656769 -3.6427155l-1.6703644 -3.3407364l-1.9750671 -3.1884003l-2.2770386 -3.036045l-2.4293823 -2.7340736l-2.7313538 -2.58173l-3.0387726 -2.2770348l-3.0360413 -2.1246872l-3.340744 -1.8227158l-3.4903564 -1.5180244l-3.6454315 -1.0637054l-3.7950592 -0.9113579l-3.9474182 -0.60666656l-1.9750519 -0.15234375z" fill-rule="evenodd"/><defs><linearGradient id="g35f391192_073.3" gradientUnits="userSpaceOnUse" gradientTransform="matrix(-6.427754421507778 0.0 0.0 6.427754421507778 0.0 0.0)" spreadMethod="pad" x1="-150.59641948082336" y1="14.443231815364891" x2="-150.5964450017104" y2="20.870986236822006"><stop offset="0.0" stop-color="#ffffff" stop-opacity="0.5254902"/><stop offset="1.0" stop-color="#ffffff" stop-opacity="0.7490196"/></linearGradient></defs><path fill="url(#g35f391192_073.3)" d="m914.1344 92.83794l2.7665405 0.18177795l2.5813599 0.37015533l2.5847168 0.5552368l2.3963013 0.92209625l2.3995972 0.9220886l2.2112427 1.288948l2.029419 1.4773254l2.029419 1.6591034l1.8443604 1.6591034l1.6625366 2.0292587l1.4741211 2.0292664l1.2923584 2.2143402l0.9221802 2.3961182l0.92211914 2.399414l0.7371216 2.5811996l0.37017822 2.5844955l2.029419 -0.9220886l2.029419 -0.9220886l2.2111816 -0.37016296l2.3996582 -0.18507385l1.8442993 0l1.6592407 0.37015533l1.6625366 0.3668518l1.4741211 0.5552368l1.477478 0.7370148l1.4741211 0.9220886l1.2923584 0.92209625l1.1072388 1.1071701l1.1040039 1.1071701l0.92211914 1.2922516l0.9221802 1.4740219l0.74035645 1.4773254l0.55200195 1.4740295l0.37017822 1.6590958l0.36688232 1.6624146l0 1.8441772l0 1.4740295l-105.32837 0l-0.55529785 -2.2143402l0 -2.3961182l0 -2.0292587l0.37017822 -2.0292664l0.55200195 -1.8441772l0.55529785 -1.8441849l0.92211914 -1.8441849l0.9221802 -1.6624069l1.1072388 -1.4740219l1.2890625 -1.4740295l1.477478 -1.292244l1.6592407 -1.1071777l1.477417 -0.9220886l1.8443604 -0.9220886l1.8442993 -0.7370148l1.8443604 -0.37015533l2.029419 -0.37016296l3.50354 0l1.477478 0.18508148l2.951538 0.5552368l0.9221802 -1.8441849l0.9221802 -1.8474884l1.1072388 -1.6591034l1.2890625 -1.6591034l1.2923584 -1.6591034l1.4741211 -1.292244l1.6625366 -1.4773331l1.6592407 -1.1038666l1.6592407 -1.1071701l1.8443604 -1.1071701l1.8475952 -0.73700714l2.026123 -0.7403183l2.029419 -0.5519333l2.029419 -0.37016296l2.2145386 -0.3668518z" fill-rule="evenodd"/><defs><linearGradient id="g35f391192_073.4" gradientUnits="userSpaceOnUse" gradientTransform="matrix(7.984052647792697 0.0 0.0 7.984052647792697 0.0 0.0)" spreadMethod="pad" x1="95.4908782679236" y1="4.79918452945477" x2="95.49084744861379" y2="12.783237177187983"><stop offset="0.0" stop-color="#ffffff" stop-opacity="0.5254902"/><stop offset="1.0" stop-color="#ffffff" stop-opacity="0.7490196"/></linearGradient></defs><path fill="url(#g35f391192_073.4)" d="m867.9307 38.317585l-3.6160278 0.13437271l-3.4816284 0.53507996l-3.4816284 0.6694565l-3.34729 1.0725632l-3.215271 1.2045364l-3.0809326 1.607647l-2.9441528 1.7396202l-2.6802368 2.0083618l-2.543457 2.1427307l-2.411438 2.4114723l-2.2747192 2.6778145l-1.8764038 2.6778145l-1.739624 2.946556l-1.607605 3.080925l-1.2045288 3.2128944l-0.9382324 3.3472672l-2.0083618 -1.3389053l-2.0083618 -1.3389053l-2.1427002 -1.0701675l-2.2770996 -0.8038254l-2.2770996 -0.80381775l-2.4091187 -0.5350876l-2.5458374 -0.2687416l-2.543396 -0.1343689l-2.6778564 0.1343689l-2.6801758 0.4031105l-2.543457 0.5350876l-2.411499 0.8038254l-2.4090576 1.0701599l-2.1427002 1.2045364l-2.1427612 1.3413086l-2.0083618 1.6052475l-1.8764038 1.7420197l-1.6052246 1.8739929l-1.607666 2.0083618l-1.3389282 2.1427307l-1.2045288 2.2770996l-0.9381714 2.4114761l-0.6694336 2.4090729l-0.5350952 2.5458374l-1.7420044 -0.2687378l-1.8740234 -0.1343689l-1.4732666 0.1343689l-1.4732666 0.1343689l-1.3389282 0.40071106l-1.3389282 0.40311432l-1.2069092 0.6694565l-1.2045288 0.66944885l-1.2045288 0.93579865l-0.9382324 0.9381943l-0.9381714 0.9381943l-0.935791 1.2045364l-0.6694336 1.2045364l-0.6694946 1.2069321l-0.40307617 1.338913l-0.40075684 1.3389053l-0.13433838 1.4732742l-0.13439941 1.4732819l177.03809 0l0.4006958 -1.6076508l0.13439941 -1.6076508l0.2687378 -1.6052475l0 -1.6076508l-0.13439941 -2.6778107l-0.40307617 -2.680214l-0.6694336 -2.4090729l-0.803833 -2.4114685l-1.2045288 -2.2771072l-1.2045898 -2.274704l-1.607605 -2.0083542l-1.607666 -1.8763962l-1.8739624 -1.6076431l-2.0083618 -1.6052475l-2.2770996 -1.2069397l-2.2770996 -1.2045364l-2.4091187 -0.8038254l-2.411438 -0.66944885l-2.6778564 -0.40071106l-2.6777954 -0.13437653l-2.8121948 0.13437653l-2.6801758 0.40071106l-1.0701904 -3.3472672l-1.2045288 -3.212902l-1.4732666 -3.080925l-1.7420654 -2.946556l-2.0083008 -2.8121834l-2.1427612 -2.5434418l-2.411499 -2.4114723l-2.543396 -2.2771034l-2.8121948 -2.0083618l-2.9465942 -1.7396202l-3.0784912 -1.607647l-3.215332 -1.2045364l-3.347229 -1.0725632l-3.34729 -0.6694565l-3.6160278 -0.53507996l-3.6159668 -0.13437271z" fill-rule="evenodd"/><defs><linearGradient id="g35f391192_073.5" gradientUnits="userSpaceOnUse" gradientTransform="matrix(5.734986828375445 0.0 0.0 5.734986828375445 0.0 0.0)" spreadMethod="pad" x1="-1.4214912393432764" y1="3.7710826763402663" x2="-1.4215120217383155" y2="9.506069504678054"><stop offset="0.0" stop-color="#ffffff" stop-opacity="0.5254902"/><stop offset="1.0" stop-color="#ffffff" stop-opacity="0.7490196"/></linearGradient></defs><path fill="url(#g35f391192_073.5)" d="m34.730625 21.627417l-2.2025604 0.14470291l-2.0551987 0.2946701l-2.0578308 0.44200325l-1.907835 0.7340412l-1.9104652 0.7340393l-1.7604713 1.0260792l-1.6157379 1.1760445l-1.6157379 1.3207474l-1.4683762 1.3207474l-1.3236427 1.6154175l-1.1736469 1.6154137l-1.0289145 1.7627525l-0.7341881 1.9074554l-0.7341871 1.9100838l-0.58682346 2.0547867l-0.29472733 2.0574226l-1.6157389 -0.7340431l-1.6157389 -0.7340393l-1.7604704 -0.2946701l-1.9104662 -0.14733505l-1.468375 0l-1.3210108 0.2946701l-1.3236426 0.29203796l-1.1736473 0.44200134l-1.1762787 0.58670807l-1.1736473 0.7340393l-1.0289149 0.7340431l-0.881551 0.88137436l-0.8789196 0.88137436l-0.7341876 1.0287094l-0.7341876 1.1734161l-0.5894551 1.1760406l-0.4394598 1.1734161l-0.29472733 1.3207474l-0.29209566 1.3233757l0 1.4680824l0 1.1734161l83.85788 0l0.4420929 -1.7627525l0 -1.9074554l0 -1.6154137l-0.29473114 -1.6154175l-0.43945312 -1.4680824l-0.4420929 -1.4680824l-0.7341919 -1.4680824l-0.73418427 -1.3233757l-0.88155365 -1.1734161l-1.0262833 -1.1734123l-1.1762772 -1.0287094l-1.3210144 -0.88137436l-1.1762772 -0.7340393l-1.4683762 -0.7340431l-1.4683685 -0.58670807l-1.4683762 -0.2946663l-1.6157417 -0.2946701l-2.789383 0l-1.176281 0.14733505l-2.349926 0.44200134l-0.7341881 -1.4680786l-0.73418427 -1.4707146l-0.88155365 -1.3207474l-1.0262833 -1.3207474l-1.0289154 -1.3207474l-1.173645 -1.0287094l-1.3236427 -1.1760445l-1.3210106 -0.8787441l-1.3210106 -0.88137627l-1.4683762 -0.88137436l-1.4710083 -0.58670616l-1.6131058 -0.5893383l-1.6157379 -0.43937302l-1.6157379 -0.2946682l-1.7631035 -0.29203796z" fill-rule="evenodd"/><path fill="#000000" fill-opacity="0.0" d="m896.6192 8.39895E-5l57.606323 0l0 41.322834l-57.606323 0z" fill-rule="evenodd"/><path fill="#ffffff" d="m935.62537 15.880875l0 10.640625l-0.921875 0l0 -9.609375l-2.625 1.625l-0.4375 -0.6875l3.1875 -1.96875l0.796875 0zm5.529907 -0.171875q1.34375 0 2.140625 0.78125q0.796875 0.78125 0.796875 2.015625q0 1.046875 -0.4375 1.953125q-0.4375 0.90625 -1.359375 2.0q-0.90625 1.09375 -2.953125 3.25l5.03125 0l-0.125 0.8125l-6.0 0l0 -0.78125q2.1875 -2.34375 3.140625 -3.46875q0.953125 -1.125 1.34375 -1.953125q0.390625 -0.828125 0.390625 -1.765625q0 -0.9375 -0.546875 -1.5q-0.546875 -0.5625 -1.46875 -0.5625q-0.734375 0 -1.296875 0.3125q-0.5625 0.296875 -1.078125 0.90625l-0.640625 -0.484375q0.640625 -0.78125 1.375 -1.140625q0.75 -0.375 1.6875 -0.375z" fill-rule="nonzero"/></g></svg>