<svg version="1.1" viewBox="0.0 0.0 960.0 540.0" fill="none" stroke="none" stroke-linecap="square" stroke-miterlimit="10" xmlns:xlink="http://www.w3.org/1999/xlink" xmlns="http://www.w3.org/2000/svg"><clipPath id="g35ed75ccf_057.0"><path d="m0 0l960.0 0l0 540.0l-960.0 0l0 -540.0z" clip-rule="nonzero"/></clipPath><g clip-path="url(#g35ed75ccf_057.0)"><defs><linearGradient id="g35ed75ccf_057.1" gradientUnits="userSpaceOnUse" gradientTransform="matrix(23.242106579261463 0.0 0.0 23.242106579261463 0.0 0.0)" spreadMethod="pad" x1="1.7130817638910854E-6" y1="-0.008411760736123021" x2="-0.004731615683309229" y2="23.23369433654662"><stop offset="0.0" stop-color="#002e8c"/><stop offset="0.75" stop-color="#8235d7"/><stop offset="1.0" stop-color="#a354ec"/></linearGradient></defs><path fill="url(#g35ed75ccf_057.1)" d="m0 0l960.0 0l0 540.0l-960.0 0z" fill-rule="evenodd"/><path fill="#ffffff" d="m27.067902 73.481476l3.5810947 -0.4025421l1.4897594 -3.2787628l1.4897614 3.2787628l3.5810928 0.4025421l-2.6603737 2.4289246l0.7234802 3.527542l-3.1339607 -1.7775955l-3.1339607 1.7775955l0.7234783 -3.527542z" fill-rule="evenodd"/><path fill="#ffffff" d="m808.0679 25.305622l3.5811157 -0.4025421l1.4897461 -3.278759l1.4898071 3.278759l3.5810547 0.4025421l-2.6603394 2.4289246l0.7234497 3.527544l-3.1339722 -1.7775993l-3.1339111 1.7775993l0.7234497 -3.527544z" fill-rule="evenodd"/><path fill="#ffffff" d="m269.35663 36.93423l3.5810852 -0.4025421l1.4897461 -3.278759l1.4897766 3.278759l3.5810852 0.4025421l-2.6603699 2.4289246l0.7234802 3.527546l-3.1339722 -1.7776031l-3.1339417 1.7776031l0.7234802 -3.527546z" fill-rule="evenodd"/><path fill="#ffffff" d="m651.41437 83.11927l3.5811157 -0.4025421l1.4897461 -3.2787628l1.4897461 3.2787628l3.5811157 0.4025421l-2.6604004 2.4289246l0.72351074 3.527542l-3.1339722 -1.7775955l-3.1339722 1.7775955l0.7234497 -3.527542z" fill-rule="evenodd"/><path fill="#ffffff" d="m614.6243 58.200634l3.5811157 -0.4025421l1.4897461 -3.278759l1.4897461 3.278759l3.5811157 0.4025421l-2.6604004 2.4289284l0.72351074 3.527542l-3.1339722 -1.7775993l-3.1339722 1.7775993l0.72351074 -3.527542z" fill-rule="evenodd"/><path fill="#ffffff" d="m256.15222 48.60105l0 0c0 -1.2611237 1.0223389 -2.2834663 2.2834778 -2.2834663l0 0c0.60562134 0 1.1864319 0.2405777 1.6146545 0.6688118c0.42822266 0.4282341 0.6687927 1.0090408 0.6687927 1.6146545l0 0c0 1.2611198 -1.0223389 2.2834625 -2.2834473 2.2834625l0 0c-1.2611389 0 -2.2834778 -1.0223427 -2.2834778 -2.2834625z" fill-rule="evenodd"/><path fill="#ffffff" d="m307.63254 59.33858l0 0c0 -1.2611198 1.0223389 -2.2834625 2.2834778 -2.2834625l0 0c0.60562134 0 1.1864014 0.2405777 1.6146545 0.6688118c0.42822266 0.4282303 0.6687927 1.0090408 0.6687927 1.6146507l0 0c0 1.2611237 -1.0223389 2.2834663 -2.2834473 2.2834663l0 0c-1.2611389 0 -2.2834778 -1.0223427 -2.2834778 -2.2834663z" fill-rule="evenodd"/><path fill="#ffffff" d="m37.209972 91.35958l0 0c0 -1.2611237 1.0223427 -2.2834625 2.2834663 -2.2834625l0 0c0.6056137 0 1.1864204 0.2405777 1.6146545 0.668808c0.4282303 0.4282303 0.668808 1.0090408 0.668808 1.6146545l0 0c0 1.2611237 -1.0223389 2.2834625 -2.2834625 2.2834625l0 0c-1.2611237 0 -2.2834663 -1.0223389 -2.2834663 -2.2834625z" fill-rule="evenodd"/><path fill="#ffffff" d="m181.26772 33.545933l0 0c0 -1.2611237 1.0223389 -2.2834663 2.2834625 -2.2834663l0 0c0.60562134 0 1.1864166 0.2405796 1.6146545 0.6688118c0.42823792 0.4282341 0.668808 1.0090408 0.668808 1.6146545l0 0c0 1.2611198 -1.0223389 2.2834625 -2.2834625 2.2834625l0 0c-1.2611237 0 -2.2834625 -1.0223427 -2.2834625 -2.2834625z" fill-rule="evenodd"/><path fill="#ffffff" d="m614.6247 84.25722l0 0c0 -1.2611237 1.0223389 -2.2834625 2.2834473 -2.2834625l0 0c0.6055908 0 1.1864014 0.2405777 1.614624 0.668808c0.4282837 0.42823792 0.66882324 1.0090408 0.66882324 1.6146545l0 0c0 1.2611237 -1.0223389 2.2834625 -2.2834473 2.2834625l0 0c-1.2611084 0 -2.2834473 -1.0223389 -2.2834473 -2.2834625z" fill-rule="evenodd"/><path fill="#ffffff" d="m787.8819 38.070866l0 0c0 -1.2611237 1.0223389 -2.2834625 2.2834473 -2.2834625l0 0c0.60565186 0 1.1864014 0.2405777 1.614685 0.668808c0.42822266 0.4282341 0.6687622 1.0090408 0.6687622 1.6146545l0 0c0 1.2611237 -1.0223389 2.2834663 -2.2834473 2.2834663l0 0c-1.2611084 0 -2.2834473 -1.0223427 -2.2834473 -2.2834663z" fill-rule="evenodd"/><path fill="#ffffff" d="m841.958 115.13123l0 0c0 -1.2611237 1.0223389 -2.2834625 2.2834473 -2.2834625l0 0c0.60565186 0 1.1864624 0.2405777 1.614685 0.668808c0.42822266 0.42823792 0.66882324 1.0090408 0.66882324 1.6146545l0 0c0 1.2611237 -1.0223999 2.2834625 -2.2835083 2.2834625l0 0c-1.2611084 0 -2.2834473 -1.0223389 -2.2834473 -2.2834625z" fill-rule="evenodd"/><path fill="#ffffff" d="m170.4685 43.6063l0 0c0 -1.2611237 1.0223389 -2.2834663 2.2834625 -2.2834663l0 0c0.6056061 0 1.1864166 0.2405777 1.6146545 0.6688118c0.42823792 0.4282341 0.668808 1.0090408 0.668808 1.6146545l0 0c0 1.2611198 -1.0223389 2.2834625 -2.2834625 2.2834625l0 0c-1.2611237 0 -2.2834625 -1.0223427 -2.2834625 -2.2834625z" fill-rule="evenodd"/><path fill="#ffffff" d="m448.1916 43.6063l0 0c0 -1.2611237 1.0223389 -2.2834663 2.2834778 -2.2834663l0 0c0.60562134 0 1.1864319 0.2405777 1.6146545 0.6688118c0.42822266 0.4282341 0.66882324 1.0090408 0.66882324 1.6146545l0 0c0 1.2611198 -1.0223694 2.2834625 -2.2834778 2.2834625l0 0c-1.2611389 0 -2.2834778 -1.0223427 -2.2834778 -2.2834625z" fill-rule="evenodd"/><path fill="#ffffff" d="m338.71127 113.49606l0 0c0 -1.2611237 1.0223694 -2.2834625 2.2834778 -2.2834625l0 0c0.60562134 0 1.1864319 0.2405777 1.6146545 0.668808c0.42822266 0.4282303 0.66882324 1.0090408 0.66882324 1.6146545l0 0c0 1.2611237 -1.0223694 2.2834625 -2.2834778 2.2834625l0 0c-1.2611084 0 -2.2834778 -1.0223389 -2.2834778 -2.2834625z" fill-rule="evenodd"/><path fill="#ffffff" d="m905.0945 192.16011l0 0c0 -1.2611237 1.0223389 -2.2834625 2.2834473 -2.2834625l0 0c0.60565186 0 1.1864624 0.24057007 1.614685 0.668808c0.42822266 0.42822266 0.66882324 1.0090332 0.66882324 1.6146545l0 0c0 1.2611237 -1.0223389 2.2834625 -2.2835083 2.2834625l0 0c-1.2611084 0 -2.2834473 -1.0223389 -2.2834473 -2.2834625z" fill-rule="evenodd"/><path fill="#ffffff" d="m129.80052 173.5433l0 0c0 -1.2611237 1.0223389 -2.2834625 2.2834625 -2.2834625l0 0c0.60562134 0 1.1864319 0.24058533 1.6146545 0.668808c0.42823792 0.42823792 0.668808 1.0090485 0.668808 1.6146545l0 0c0 1.2611237 -1.0223389 2.2834625 -2.2834625 2.2834625l0 0c-1.2611237 0 -2.2834625 -1.0223389 -2.2834625 -2.2834625z" fill-rule="evenodd"/><path fill="#ffffff" d="m464.15222 56.60105l0 0c0 -1.2611237 1.0223389 -2.2834663 2.2834778 -2.2834663l0 0c0.60562134 0 1.1864319 0.2405777 1.6146545 0.6688118c0.42822266 0.4282341 0.6687927 1.0090408 0.6687927 1.6146545l0 0c0 1.2611198 -1.0223389 2.2834625 -2.2834473 2.2834625l0 0c-1.2611389 0 -2.2834778 -1.0223427 -2.2834778 -2.2834625z" fill-rule="evenodd"/><path fill="#ffffff" d="m56.15223 216.60104l0 0c0 -1.2611237 1.0223427 -2.2834625 2.2834663 -2.2834625l0 0c0.6056137 0 1.1864204 0.24058533 1.6146545 0.668808c0.4282303 0.42823792 0.6688118 1.0090485 0.6688118 1.6146545l0 0c0 1.2611237 -1.0223427 2.2834778 -2.2834663 2.2834778l0 0c-1.2611237 0 -2.2834663 -1.0223541 -2.2834663 -2.2834778z" fill-rule="evenodd"/><path fill="#ffffff" d="m864.1522 176.60104l0 0c0 -1.2611237 1.0223389 -2.2834625 2.2834473 -2.2834625l0 0c0.60565186 0 1.1864624 0.24058533 1.614685 0.668808c0.42822266 0.42823792 0.66882324 1.0090485 0.66882324 1.6146545l0 0c0 1.2611237 -1.0223389 2.2834778 -2.2835083 2.2834778l0 0c-1.2611084 0 -2.2834473 -1.0223541 -2.2834473 -2.2834778z" fill-rule="evenodd"/><path fill="#ffffff" d="m448.1916 55.38845l0 0c0 -0.59142303 0.47946167 -1.0708656 1.0708923 -1.0708656l0 0c0.28399658 0 0.55636597 0.11282349 0.75720215 0.31364822c0.20083618 0.20082855 0.31365967 0.47320557 0.31365967 0.7572174l0 0c0 0.59142303 -0.47946167 1.0708656 -1.0708618 1.0708656l0 0c-0.59143066 0 -1.0708923 -0.4794426 -1.0708923 -1.0708656z" fill-rule="evenodd"/><path fill="#ffffff" d="m584.1916 71.38845l0 0c0 -0.59142303 0.47943115 -1.0708618 1.0708618 -1.0708618l0 0c0.28405762 0 0.5563965 0.11281586 0.7572632 0.3136444c0.20080566 0.20082855 0.31359863 0.47320557 0.31359863 0.7572174l0 0c0 0.59142303 -0.47943115 1.0708694 -1.0708618 1.0708694l0 0c-0.59143066 0 -1.0708618 -0.4794464 -1.0708618 -1.0708694z" fill-rule="evenodd"/><path fill="#ffffff" d="m328.1916 71.38845l0 0c0 -0.59142303 0.47946167 -1.0708618 1.0708923 -1.0708618l0 0c0.28399658 0 0.55636597 0.11281586 0.75720215 0.3136444c0.20083618 0.20082855 0.31365967 0.47320557 0.31365967 0.7572174l0 0c0 0.59142303 -0.47946167 1.0708694 -1.0708618 1.0708694l0 0c-0.59143066 0 -1.0708923 -0.4794464 -1.0708923 -1.0708694z" fill-rule="evenodd"/><path fill="#ffffff" d="m376.1916 31.38845l0 0c0 -0.59142303 0.47946167 -1.0708656 1.0708923 -1.0708656l0 0c0.28399658 0 0.55636597 0.11282349 0.75720215 0.31365013c0.20083618 0.20082664 0.31365967 0.47320557 0.31365967 0.7572155l0 0c0 0.59142303 -0.47946167 1.0708656 -1.0708618 1.0708656l0 0c-0.59143066 0 -1.0708923 -0.4794426 -1.0708923 -1.0708656z" fill-rule="evenodd"/><path fill="#ffffff" d="m560.1916 15.388452l0 0c0 -0.59142303 0.47943115 -1.0708666 1.0708618 -1.0708666l0 0c0.28405762 0 0.5563965 0.11282349 0.7572632 0.31365013c0.20080566 0.20082569 0.31359863 0.4732046 0.31359863 0.75721645l0 0c0 0.59142303 -0.47943115 1.0708666 -1.0708618 1.0708666l0 0c-0.59143066 0 -1.0708618 -0.47944355 -1.0708618 -1.0708666z" fill-rule="evenodd"/><path fill="#ffffff" d="m784.1916 23.38845l0 0c0 -0.59142303 0.47943115 -1.0708656 1.0708618 -1.0708656l0 0c0.28405762 0 0.5563965 0.11282349 0.7572632 0.31365013c0.20080566 0.20082664 0.31359863 0.47320557 0.31359863 0.7572155l0 0c0 0.59142303 -0.47943115 1.0708675 -1.0708618 1.0708675l0 0c-0.59143066 0 -1.0708618 -0.4794445 -1.0708618 -1.0708675z" fill-rule="evenodd"/><path fill="#ffffff" d="m832.1916 127.38845l0 0c0 -0.59142303 0.47943115 -1.0708618 1.0708618 -1.0708618l0 0c0.28405762 0 0.5563965 0.11281586 0.7572632 0.3136444c0.20080566 0.20082855 0.31359863 0.47320557 0.31359863 0.7572174l0 0c0 0.59142303 -0.47943115 1.0708694 -1.0708618 1.0708694l0 0c-0.59143066 0 -1.0708618 -0.4794464 -1.0708618 -1.0708694z" fill-rule="evenodd"/><path fill="#ffffff" d="m888.1916 167.38846l0 0c0 -0.59143066 0.47943115 -1.0708771 1.0708618 -1.0708771l0 0c0.28405762 0 0.5563965 0.11282349 0.7572632 0.31365967c0.20080566 0.20082092 0.31359863 0.47320557 0.31359863 0.7572174l0 0c0 0.5914154 -0.47943115 1.0708618 -1.0708618 1.0708618l0 0c-0.59143066 0 -1.0708618 -0.4794464 -1.0708618 -1.0708618z" fill-rule="evenodd"/><path fill="#ffffff" d="m744.1916 151.38846l0 0c0 -0.59143066 0.47943115 -1.0708771 1.0708618 -1.0708771l0 0c0.28405762 0 0.5563965 0.11282349 0.7572632 0.31365967c0.20080566 0.20082092 0.31359863 0.47320557 0.31359863 0.7572174l0 0c0 0.5914154 -0.47943115 1.0708618 -1.0708618 1.0708618l0 0c-0.59143066 0 -1.0708618 -0.4794464 -1.0708618 -1.0708618z" fill-rule="evenodd"/><path fill="#ffffff" d="m712.1916 47.38845l0 0c0 -0.59142303 0.47943115 -1.0708656 1.0708618 -1.0708656l0 0c0.28405762 0 0.5563965 0.11282349 0.7572632 0.31364822c0.20080566 0.20082855 0.31359863 0.47320557 0.31359863 0.7572174l0 0c0 0.59142303 -0.47943115 1.0708656 -1.0708618 1.0708656l0 0c-0.59143066 0 -1.0708618 -0.4794426 -1.0708618 -1.0708656z" fill-rule="evenodd"/><path fill="#ffffff" d="m816.1916 215.38846l0 0c0 -0.59143066 0.47943115 -1.0708771 1.0708618 -1.0708771l0 0c0.28405762 0 0.5563965 0.11282349 0.7572632 0.31365967c0.20080566 0.20082092 0.31359863 0.47320557 0.31359863 0.7572174l0 0c0 0.5914154 -0.47943115 1.0708618 -1.0708618 1.0708618l0 0c-0.59143066 0 -1.0708618 -0.4794464 -1.0708618 -1.0708618z" fill-rule="evenodd"/><path fill="#ffffff" d="m80.191605 231.38846l0 0c0 -0.59143066 0.47943878 -1.0708771 1.0708618 -1.0708771l0 0c0.28401184 0 0.55638885 0.11282349 0.7572174 0.31365967c0.20082855 0.20082092 0.31365204 0.47320557 0.31365204 0.7572174l0 0c0 0.5914154 -0.4794464 1.0708618 -1.0708694 1.0708618l0 0c-0.59142303 0 -1.0708618 -0.4794464 -1.0708618 -1.0708618z" fill-rule="evenodd"/><path fill="#ffffff" d="m64.191605 159.38846l0 0c0 -0.59143066 0.47943878 -1.0708771 1.0708618 -1.0708771l0 0c0.28401184 0 0.55638885 0.11282349 0.7572174 0.31365967c0.20082855 0.20082092 0.31365204 0.47320557 0.31365204 0.7572174l0 0c0 0.5914154 -0.4794464 1.0708618 -1.0708694 1.0708618l0 0c-0.59142303 0 -1.0708618 -0.4794464 -1.0708618 -1.0708618z" fill-rule="evenodd"/><path fill="#ffffff" d="m264.1916 111.38845l0 0c0 -0.59142303 0.47946167 -1.0708618 1.0708923 -1.0708618l0 0c0.28399658 0 0.55636597 0.11281586 0.75720215 0.3136444c0.20083618 0.20082855 0.31365967 0.47320557 0.31365967 0.7572174l0 0c0 0.59142303 -0.47946167 1.0708694 -1.0708618 1.0708694l0 0c-0.59143066 0 -1.0708923 -0.4794464 -1.0708923 -1.0708694z" fill-rule="evenodd"/><path fill="#ffffff" d="m168.1916 31.38845l0 0c0 -0.59142303 0.4794464 -1.0708656 1.0708618 -1.0708656l0 0c0.28401184 0 0.5563965 0.11282349 0.7572174 0.31365013c0.20082092 0.20082664 0.3136444 0.47320557 0.3136444 0.7572155l0 0c0 0.59142303 -0.47943115 1.0708656 -1.0708618 1.0708656l0 0c-0.5914154 0 -1.0708618 -0.4794426 -1.0708618 -1.0708656z" fill-rule="evenodd"/><path fill="#ffffff" d="m64.191605 71.38845l0 0c0 -0.59142303 0.47943878 -1.0708618 1.0708618 -1.0708618l0 0c0.28401184 0 0.55638885 0.11281586 0.7572174 0.3136444c0.20082855 0.20082855 0.31365204 0.47320557 0.31365204 0.7572174l0 0c0 0.59142303 -0.4794464 1.0708694 -1.0708694 1.0708694l0 0c-0.59142303 0 -1.0708618 -0.4794464 -1.0708618 -1.0708694z" fill-rule="evenodd"/><path fill="#ffffff" d="m143.7454 26.44357l3.9670258 -0.8518677l0.8518677 -3.9670296l0.8518677 3.9670296l3.967041 0.8518677l-3.967041 0.8518696l-0.8518677 3.9670277l-0.8518677 -3.9670277z" fill-rule="evenodd"/><path fill="#ffffff" d="m391.7454 66.44357l3.967041 -0.8518753l0.8518677 -3.9670258l0.8518677 3.9670258l3.967041 0.8518753l-3.967041 0.8518677l-0.8518677 3.9670258l-0.8518677 -3.9670258z" fill-rule="evenodd"/><path fill="#ffffff" d="m664.2677 26.44357l3.967041 -0.8518677l0.8518677 -3.9670296l0.8518677 3.9670296l3.967041 0.8518677l-3.967041 0.8518696l-0.8518677 3.9670277l-0.8518677 -3.9670277z" fill-rule="evenodd"/><path fill="#ffffff" d="m787.8819 134.85301l3.967041 -0.8518677l0.8518677 -3.9670258l0.8518677 3.9670258l3.967041 0.8518677l-3.967041 0.8518677l-0.8518677 3.967041l-0.8518677 -3.967041z" fill-rule="evenodd"/><path fill="#ffffff" d="m11.440945 189.62466l3.9670286 -0.8518677l0.8518686 -3.9670258l0.8518696 3.9670258l3.9670296 0.8518677l-3.9670296 0.85188293l-0.8518696 3.9670258l-0.8518686 -3.9670258z" fill-rule="evenodd"/><path fill="#ffffff" d="m915.2493 55.38845l3.967041 -0.8518677l0.8518677 -3.9670296l0.8518677 3.9670296l3.967041 0.8518677l-3.967041 0.8518715l-0.8518677 3.9670258l-0.8518677 -3.9670258z" fill-rule="evenodd"/><path fill="#dda2ec" fill-opacity="0.2962" d="m126.315575 46.317513l-3.7950592 0.15234375l-3.6454391 0.45703888l-3.490364 0.7590141l-3.4930878 1.0609818l-3.3407364 1.3684006l-3.1883926 1.5180206l-2.8837051 1.9723434l-2.8864212 1.9750633l-2.7313538 2.2770348l-2.4293823 2.58173l-2.277031 2.581726l-1.9750671 2.8837051l-1.8227158 3.0360413l-1.5180206 3.1884003l-1.3656769 3.3407364l-1.0637054 3.4930878l-1.5180283 -0.45703888l-1.6703644 -0.30197144l-1.670372 -0.30469513l-1.8199997 0l-2.2797546 0.15234375l-2.1246872 0.30197906l-2.1246872 0.45703888l-1.9750671 0.7590103l-1.9723434 0.91135406l-1.8227158 1.2133331l-1.6703682 1.2160492l-1.5180244 1.3656769l-1.3656769 1.5180283l-1.216053 1.6703644l-1.2133293 1.8227234l-0.9113579 1.9723358l-0.7590103 1.9750671l-0.45703888 2.1246872l-0.30197525 2.127411l-0.15234375 2.2770386l0 1.6703644l0.30197144 1.8199997l0.3046913 1.5180206l0.454319 1.670372l151.37798 0l0 -0.60666656l0 -1.2133331l-0.30470276 -1.0637054l-0.15234375 -1.2160492l-0.4543152 -1.0609818l-0.4570465 -0.9113617l-0.60665894 -0.91135406l-0.6066742 -0.9113617l-0.7590027 -0.91135406l-0.9113617 -0.7590103l-0.9113617 -0.60666656l-0.91134644 -0.60666656l-0.9113617 -0.45703888l-1.0609894 -0.45432281l-1.2160492 -0.15234375l-1.0637054 -0.30469513l-1.2133331 0l-1.8227081 0.15235138l-1.6703796 0.3046875l-1.5180206 0.60666656l-1.3656769 0.9113617l-0.75901794 -1.5180283l-0.91134644 -1.3656769l-0.9113617 -1.368393l-1.0609894 -1.2133331l-1.0637054 -1.2160492l-1.2160492 -1.0609894l-1.2133331 -1.0637054l-1.3656769 -0.91135406l-1.368393 -0.9113617l-1.5180206 -0.7590103l-1.5180206 -0.60666656l-1.6703796 -0.4543152l-1.5180206 -0.45703888l-1.6703644 -0.30197144l-1.8227234 -0.30469513l-1.8199921 0l-0.75901794 -3.7950592l-1.2160492 -3.6454315l-1.3656769 -3.6427155l-1.6703644 -3.3407364l-1.9750671 -3.1884003l-2.2770386 -3.036045l-2.4293823 -2.7340736l-2.7313538 -2.58173l-3.0387726 -2.2770348l-3.0360413 -2.1246872l-3.340744 -1.8227158l-3.4903564 -1.5180244l-3.6454315 -1.0637054l-3.7950592 -0.9113579l-3.9474182 -0.60666656l-1.9750519 -0.15234375z" fill-rule="evenodd"/><path fill="#dda2ec" fill-opacity="0.2962" d="m914.1344 92.83794l2.7665405 0.18177795l2.5813599 0.37015533l2.5847168 0.5552368l2.3963013 0.92209625l2.3995972 0.9220886l2.2112427 1.288948l2.029419 1.4773254l2.029419 1.6591034l1.8443604 1.6591034l1.6625366 2.0292587l1.4741211 2.0292664l1.2923584 2.2143402l0.9221802 2.3961182l0.92211914 2.399414l0.7371216 2.5811996l0.37017822 2.5844955l2.029419 -0.9220886l2.029419 -0.9220886l2.2111816 -0.37016296l2.3996582 -0.18507385l1.8442993 0l1.6592407 0.37015533l1.6625366 0.3668518l1.4741211 0.5552368l1.477478 0.7370148l1.4741211 0.9220886l1.2923584 0.92209625l1.1072388 1.1071701l1.1040039 1.1071701l0.92211914 1.2922516l0.9221802 1.4740219l0.74035645 1.4773254l0.55200195 1.4740295l0.37017822 1.6590958l0.36688232 1.6624146l0 1.8441772l0 1.4740295l-105.32837 0l-0.55529785 -2.2143402l0 -2.3961182l0 -2.0292587l0.37017822 -2.0292664l0.55200195 -1.8441772l0.55529785 -1.8441849l0.92211914 -1.8441849l0.9221802 -1.6624069l1.1072388 -1.4740219l1.2890625 -1.4740295l1.477478 -1.292244l1.6592407 -1.1071777l1.477417 -0.9220886l1.8443604 -0.9220886l1.8442993 -0.7370148l1.8443604 -0.37015533l2.029419 -0.37016296l3.50354 0l1.477478 0.18508148l2.951538 0.5552368l0.9221802 -1.8441849l0.9221802 -1.8474884l1.1072388 -1.6591034l1.2890625 -1.6591034l1.2923584 -1.6591034l1.4741211 -1.292244l1.6625366 -1.4773331l1.6592407 -1.1038666l1.6592407 -1.1071701l1.8443604 -1.1071701l1.8475952 -0.73700714l2.026123 -0.7403183l2.029419 -0.5519333l2.029419 -0.37016296l2.2145386 -0.3668518z" fill-rule="evenodd"/><path fill="#dda2ec" fill-opacity="0.2962" d="m867.9307 38.317585l-3.6160278 0.13437271l-3.4816284 0.53507996l-3.4816284 0.6694565l-3.34729 1.0725632l-3.215271 1.2045364l-3.0809326 1.607647l-2.9441528 1.7396202l-2.6802368 2.0083618l-2.543457 2.1427307l-2.411438 2.4114723l-2.2747192 2.6778145l-1.8764038 2.6778145l-1.739624 2.946556l-1.607605 3.080925l-1.2045288 3.2128944l-0.9382324 3.3472672l-2.0083618 -1.3389053l-2.0083618 -1.3389053l-2.1427002 -1.0701675l-2.2770996 -0.8038254l-2.2770996 -0.80381775l-2.4091187 -0.5350876l-2.5458374 -0.2687416l-2.543396 -0.1343689l-2.6778564 0.1343689l-2.6801758 0.4031105l-2.543457 0.5350876l-2.411499 0.8038254l-2.4090576 1.0701599l-2.1427002 1.2045364l-2.1427612 1.3413086l-2.0083618 1.6052475l-1.8764038 1.7420197l-1.6052246 1.8739929l-1.607666 2.0083618l-1.3389282 2.1427307l-1.2045288 2.2770996l-0.9381714 2.4114761l-0.6694336 2.4090729l-0.5350952 2.5458374l-1.7420044 -0.2687378l-1.8740234 -0.1343689l-1.4732666 0.1343689l-1.4732666 0.1343689l-1.3389282 0.40071106l-1.3389282 0.40311432l-1.2069092 0.6694565l-1.2045288 0.66944885l-1.2045288 0.93579865l-0.9382324 0.9381943l-0.9381714 0.9381943l-0.935791 1.2045364l-0.6694336 1.2045364l-0.6694946 1.2069321l-0.40307617 1.338913l-0.40075684 1.3389053l-0.13433838 1.4732742l-0.13439941 1.4732819l177.03809 0l0.4006958 -1.6076508l0.13439941 -1.6076508l0.2687378 -1.6052475l0 -1.6076508l-0.13439941 -2.6778107l-0.40307617 -2.680214l-0.6694336 -2.4090729l-0.803833 -2.4114685l-1.2045288 -2.2771072l-1.2045898 -2.274704l-1.607605 -2.0083542l-1.607666 -1.8763962l-1.8739624 -1.6076431l-2.0083618 -1.6052475l-2.2770996 -1.2069397l-2.2770996 -1.2045364l-2.4091187 -0.8038254l-2.411438 -0.66944885l-2.6778564 -0.40071106l-2.6777954 -0.13437653l-2.8121948 0.13437653l-2.6801758 0.40071106l-1.0701904 -3.3472672l-1.2045288 -3.212902l-1.4732666 -3.080925l-1.7420654 -2.946556l-2.0083008 -2.8121834l-2.1427612 -2.5434418l-2.411499 -2.4114723l-2.543396 -2.2771034l-2.8121948 -2.0083618l-2.9465942 -1.7396202l-3.0784912 -1.607647l-3.215332 -1.2045364l-3.347229 -1.0725632l-3.34729 -0.6694565l-3.6160278 -0.53507996l-3.6159668 -0.13437271z" fill-rule="evenodd"/><path fill="#dda2ec" fill-opacity="0.2962" d="m34.730625 21.627417l-2.2025604 0.14470291l-2.0551987 0.2946701l-2.0578308 0.44200325l-1.907835 0.7340412l-1.9104652 0.7340393l-1.7604713 1.0260792l-1.6157379 1.1760445l-1.6157379 1.3207474l-1.4683762 1.3207474l-1.3236427 1.6154175l-1.1736469 1.6154137l-1.0289145 1.7627525l-0.7341881 1.9074554l-0.7341871 1.9100838l-0.58682346 2.0547867l-0.29472733 2.0574226l-1.6157389 -0.7340431l-1.6157389 -0.7340393l-1.7604704 -0.2946701l-1.9104662 -0.14733505l-1.468375 0l-1.3210108 0.2946701l-1.3236426 0.29203796l-1.1736473 0.44200134l-1.1762787 0.58670807l-1.1736473 0.7340393l-1.0289149 0.7340431l-0.881551 0.88137436l-0.8789196 0.88137436l-0.7341876 1.0287094l-0.7341876 1.1734161l-0.5894551 1.1760406l-0.4394598 1.1734161l-0.29472733 1.3207474l-0.29209566 1.3233757l0 1.4680824l0 1.1734161l83.85788 0l0.4420929 -1.7627525l0 -1.9074554l0 -1.6154137l-0.29473114 -1.6154175l-0.43945312 -1.4680824l-0.4420929 -1.4680824l-0.7341919 -1.4680824l-0.73418427 -1.3233757l-0.88155365 -1.1734161l-1.0262833 -1.1734123l-1.1762772 -1.0287094l-1.3210144 -0.88137436l-1.1762772 -0.7340393l-1.4683762 -0.7340431l-1.4683685 -0.58670807l-1.4683762 -0.2946663l-1.6157417 -0.2946701l-2.789383 0l-1.176281 0.14733505l-2.349926 0.44200134l-0.7341881 -1.4680786l-0.73418427 -1.4707146l-0.88155365 -1.3207474l-1.0262833 -1.3207474l-1.0289154 -1.3207474l-1.173645 -1.0287094l-1.3236427 -1.1760445l-1.3210106 -0.8787441l-1.3210106 -0.88137627l-1.4683762 -0.88137436l-1.4710083 -0.58670616l-1.6131058 -0.5893383l-1.6157379 -0.43937302l-1.6157379 -0.2946682l-1.7631035 -0.29203796z" fill-rule="evenodd"/><path fill="#000000" fill-opacity="0.0" d="m896.6192 8.39895E-5l57.606323 0l0 41.322834l-57.606323 0z" fill-rule="evenodd"/><path fill="#ffffff" d="m934.6814 15.880875l0 10.640625l-0.921875 0l0 -9.609375l-2.625 1.625l-0.4375 -0.6875l3.1875 -1.96875l0.796875 0zm7.326721 5.015625q1.234375 0.484375 1.796875 1.15625q0.578125 0.65625 0.578125 1.703125q0 0.875 -0.453125 1.546875q-0.4375 0.65625 -1.234375 1.03125q-0.78125 0.359375 -1.8125 0.359375q-1.015625 0 -1.796875 -0.359375q-0.765625 -0.375 -1.203125 -1.03125q-0.421875 -0.671875 -0.421875 -1.53125q0 -2.046875 2.296875 -2.96875q-0.953125 -0.421875 -1.390625 -0.984375q-0.4375 -0.578125 -0.4375 -1.453125q0 -0.8125 0.40625 -1.421875q0.421875 -0.609375 1.109375 -0.921875q0.6875 -0.3125 1.46875 -0.3125q0.796875 0 1.484375 0.3125q0.6875 0.296875 1.109375 0.890625q0.421875 0.578125 0.421875 1.4375q0 0.828125 -0.46875 1.4375q-0.453125 0.59375 -1.453125 1.109375zm-3.15625 -2.515625q0 0.765625 0.4375 1.21875q0.453125 0.4375 1.53125 0.84375l0.5 0.171875q0.890625 -0.484375 1.28125 -0.984375q0.40625 -0.515625 0.40625 -1.25q0 -0.921875 -0.578125 -1.421875q-0.5625 -0.515625 -1.515625 -0.515625q-0.90625 0 -1.484375 0.515625q-0.578125 0.5 -0.578125 1.421875zm2.046875 7.53125q1.140625 0 1.8125 -0.5625q0.6875 -0.578125 0.6875 -1.59375q0 -0.640625 -0.25 -1.0625q-0.234375 -0.421875 -0.734375 -0.734375q-0.484375 -0.3125 -1.375 -0.65625l-0.546875 -0.203125q-1.078125 0.40625 -1.5625 1.0625q-0.484375 0.640625 -0.484375 1.609375q0 1.015625 0.671875 1.578125q0.671875 0.5625 1.78125 0.5625z" fill-rule="nonzero"/></g></svg>