<svg version="1.1" viewBox="0.0 0.0 960.0 540.0" fill="none" stroke="none" stroke-linecap="square" stroke-miterlimit="10" xmlns:xlink="http://www.w3.org/1999/xlink" xmlns="http://www.w3.org/2000/svg"><clipPath id="g35ed75ccf_015.0"><path d="m0 0l960.0 0l0 540.0l-960.0 0l0 -540.0z" clip-rule="nonzero"/></clipPath><g clip-path="url(#g35ed75ccf_015.0)"><defs><linearGradient id="g35ed75ccf_015.1" gradientUnits="userSpaceOnUse" gradientTransform="matrix(23.242106579261463 0.0 0.0 23.242106579261463 0.0 0.0)" spreadMethod="pad" x1="1.7130817638910854E-6" y1="-0.008411760736123021" x2="-0.004731615683309229" y2="23.23369433654662"><stop offset="0.0" stop-color="#002e8c"/><stop offset="0.75" stop-color="#8235d7"/><stop offset="1.0" stop-color="#a354ec"/></linearGradient></defs><path fill="url(#g35ed75ccf_015.1)" d="m0 0l960.0 0l0 540.0l-960.0 0z" fill-rule="evenodd"/><path fill="#ffffff" d="m27.067902 73.481476l3.5810947 -0.4025421l1.4897594 -3.2787628l1.4897614 3.2787628l3.5810928 0.4025421l-2.6603737 2.4289246l0.7234802 3.527542l-3.1339607 -1.7775955l-3.1339607 1.7775955l0.7234783 -3.527542z" fill-rule="evenodd"/><path fill="#ffffff" d="m808.0679 25.305622l3.5811157 -0.4025421l1.4897461 -3.278759l1.4898071 3.278759l3.5810547 0.4025421l-2.6603394 2.4289246l0.7234497 3.527544l-3.1339722 -1.7775993l-3.1339111 1.7775993l0.7234497 -3.527544z" fill-rule="evenodd"/><path fill="#ffffff" d="m269.35663 36.93423l3.5810852 -0.4025421l1.4897461 -3.278759l1.4897766 3.278759l3.5810852 0.4025421l-2.6603699 2.4289246l0.7234802 3.527546l-3.1339722 -1.7776031l-3.1339417 1.7776031l0.7234802 -3.527546z" fill-rule="evenodd"/><path fill="#ffffff" d="m651.41437 83.11927l3.5811157 -0.4025421l1.4897461 -3.2787628l1.4897461 3.2787628l3.5811157 0.4025421l-2.6604004 2.4289246l0.72351074 3.527542l-3.1339722 -1.7775955l-3.1339722 1.7775955l0.7234497 -3.527542z" fill-rule="evenodd"/><path fill="#ffffff" d="m614.6243 58.200634l3.5811157 -0.4025421l1.4897461 -3.278759l1.4897461 3.278759l3.5811157 0.4025421l-2.6604004 2.4289284l0.72351074 3.527542l-3.1339722 -1.7775993l-3.1339722 1.7775993l0.72351074 -3.527542z" fill-rule="evenodd"/><path fill="#ffffff" d="m256.15222 48.60105l0 0c0 -1.2611237 1.0223389 -2.2834663 2.2834778 -2.2834663l0 0c0.60562134 0 1.1864319 0.2405777 1.6146545 0.6688118c0.42822266 0.4282341 0.6687927 1.0090408 0.6687927 1.6146545l0 0c0 1.2611198 -1.0223389 2.2834625 -2.2834473 2.2834625l0 0c-1.2611389 0 -2.2834778 -1.0223427 -2.2834778 -2.2834625z" fill-rule="evenodd"/><path fill="#ffffff" d="m307.63254 59.33858l0 0c0 -1.2611198 1.0223389 -2.2834625 2.2834778 -2.2834625l0 0c0.60562134 0 1.1864014 0.2405777 1.6146545 0.6688118c0.42822266 0.4282303 0.6687927 1.0090408 0.6687927 1.6146507l0 0c0 1.2611237 -1.0223389 2.2834663 -2.2834473 2.2834663l0 0c-1.2611389 0 -2.2834778 -1.0223427 -2.2834778 -2.2834663z" fill-rule="evenodd"/><path fill="#ffffff" d="m37.209972 91.35958l0 0c0 -1.2611237 1.0223427 -2.2834625 2.2834663 -2.2834625l0 0c0.6056137 0 1.1864204 0.2405777 1.6146545 0.668808c0.4282303 0.4282303 0.668808 1.0090408 0.668808 1.6146545l0 0c0 1.2611237 -1.0223389 2.2834625 -2.2834625 2.2834625l0 0c-1.2611237 0 -2.2834663 -1.0223389 -2.2834663 -2.2834625z" fill-rule="evenodd"/><path fill="#ffffff" d="m181.26772 33.545933l0 0c0 -1.2611237 1.0223389 -2.2834663 2.2834625 -2.2834663l0 0c0.60562134 0 1.1864166 0.2405796 1.6146545 0.6688118c0.42823792 0.4282341 0.668808 1.0090408 0.668808 1.6146545l0 0c0 1.2611198 -1.0223389 2.2834625 -2.2834625 2.2834625l0 0c-1.2611237 0 -2.2834625 -1.0223427 -2.2834625 -2.2834625z" fill-rule="evenodd"/><path fill="#ffffff" d="m614.6247 84.25722l0 0c0 -1.2611237 1.0223389 -2.2834625 2.2834473 -2.2834625l0 0c0.6055908 0 1.1864014 0.2405777 1.614624 0.668808c0.4282837 0.42823792 0.66882324 1.0090408 0.66882324 1.6146545l0 0c0 1.2611237 -1.0223389 2.2834625 -2.2834473 2.2834625l0 0c-1.2611084 0 -2.2834473 -1.0223389 -2.2834473 -2.2834625z" fill-rule="evenodd"/><path fill="#ffffff" d="m787.8819 38.070866l0 0c0 -1.2611237 1.0223389 -2.2834625 2.2834473 -2.2834625l0 0c0.60565186 0 1.1864014 0.2405777 1.614685 0.668808c0.42822266 0.4282341 0.6687622 1.0090408 0.6687622 1.6146545l0 0c0 1.2611237 -1.0223389 2.2834663 -2.2834473 2.2834663l0 0c-1.2611084 0 -2.2834473 -1.0223427 -2.2834473 -2.2834663z" fill-rule="evenodd"/><path fill="#ffffff" d="m841.958 115.13123l0 0c0 -1.2611237 1.0223389 -2.2834625 2.2834473 -2.2834625l0 0c0.60565186 0 1.1864624 0.2405777 1.614685 0.668808c0.42822266 0.42823792 0.66882324 1.0090408 0.66882324 1.6146545l0 0c0 1.2611237 -1.0223999 2.2834625 -2.2835083 2.2834625l0 0c-1.2611084 0 -2.2834473 -1.0223389 -2.2834473 -2.2834625z" fill-rule="evenodd"/><path fill="#ffffff" d="m170.4685 43.6063l0 0c0 -1.2611237 1.0223389 -2.2834663 2.2834625 -2.2834663l0 0c0.6056061 0 1.1864166 0.2405777 1.6146545 0.6688118c0.42823792 0.4282341 0.668808 1.0090408 0.668808 1.6146545l0 0c0 1.2611198 -1.0223389 2.2834625 -2.2834625 2.2834625l0 0c-1.2611237 0 -2.2834625 -1.0223427 -2.2834625 -2.2834625z" fill-rule="evenodd"/><path fill="#ffffff" d="m448.1916 43.6063l0 0c0 -1.2611237 1.0223389 -2.2834663 2.2834778 -2.2834663l0 0c0.60562134 0 1.1864319 0.2405777 1.6146545 0.6688118c0.42822266 0.4282341 0.66882324 1.0090408 0.66882324 1.6146545l0 0c0 1.2611198 -1.0223694 2.2834625 -2.2834778 2.2834625l0 0c-1.2611389 0 -2.2834778 -1.0223427 -2.2834778 -2.2834625z" fill-rule="evenodd"/><path fill="#ffffff" d="m338.71127 113.49606l0 0c0 -1.2611237 1.0223694 -2.2834625 2.2834778 -2.2834625l0 0c0.60562134 0 1.1864319 0.2405777 1.6146545 0.668808c0.42822266 0.4282303 0.66882324 1.0090408 0.66882324 1.6146545l0 0c0 1.2611237 -1.0223694 2.2834625 -2.2834778 2.2834625l0 0c-1.2611084 0 -2.2834778 -1.0223389 -2.2834778 -2.2834625z" fill-rule="evenodd"/><path fill="#ffffff" d="m905.0945 192.16011l0 0c0 -1.2611237 1.0223389 -2.2834625 2.2834473 -2.2834625l0 0c0.60565186 0 1.1864624 0.24057007 1.614685 0.668808c0.42822266 0.42822266 0.66882324 1.0090332 0.66882324 1.6146545l0 0c0 1.2611237 -1.0223389 2.2834625 -2.2835083 2.2834625l0 0c-1.2611084 0 -2.2834473 -1.0223389 -2.2834473 -2.2834625z" fill-rule="evenodd"/><path fill="#ffffff" d="m129.80052 173.5433l0 0c0 -1.2611237 1.0223389 -2.2834625 2.2834625 -2.2834625l0 0c0.60562134 0 1.1864319 0.24058533 1.6146545 0.668808c0.42823792 0.42823792 0.668808 1.0090485 0.668808 1.6146545l0 0c0 1.2611237 -1.0223389 2.2834625 -2.2834625 2.2834625l0 0c-1.2611237 0 -2.2834625 -1.0223389 -2.2834625 -2.2834625z" fill-rule="evenodd"/><path fill="#ffffff" d="m464.15222 56.60105l0 0c0 -1.2611237 1.0223389 -2.2834663 2.2834778 -2.2834663l0 0c0.60562134 0 1.1864319 0.2405777 1.6146545 0.6688118c0.42822266 0.4282341 0.6687927 1.0090408 0.6687927 1.6146545l0 0c0 1.2611198 -1.0223389 2.2834625 -2.2834473 2.2834625l0 0c-1.2611389 0 -2.2834778 -1.0223427 -2.2834778 -2.2834625z" fill-rule="evenodd"/><path fill="#ffffff" d="m56.15223 216.60104l0 0c0 -1.2611237 1.0223427 -2.2834625 2.2834663 -2.2834625l0 0c0.6056137 0 1.1864204 0.24058533 1.6146545 0.668808c0.4282303 0.42823792 0.6688118 1.0090485 0.6688118 1.6146545l0 0c0 1.2611237 -1.0223427 2.2834778 -2.2834663 2.2834778l0 0c-1.2611237 0 -2.2834663 -1.0223541 -2.2834663 -2.2834778z" fill-rule="evenodd"/><path fill="#ffffff" d="m864.1522 176.60104l0 0c0 -1.2611237 1.0223389 -2.2834625 2.2834473 -2.2834625l0 0c0.60565186 0 1.1864624 0.24058533 1.614685 0.668808c0.42822266 0.42823792 0.66882324 1.0090485 0.66882324 1.6146545l0 0c0 1.2611237 -1.0223389 2.2834778 -2.2835083 2.2834778l0 0c-1.2611084 0 -2.2834473 -1.0223541 -2.2834473 -2.2834778z" fill-rule="evenodd"/><path fill="#ffffff" d="m448.1916 55.38845l0 0c0 -0.59142303 0.47946167 -1.0708656 1.0708923 -1.0708656l0 0c0.28399658 0 0.55636597 0.11282349 0.75720215 0.31364822c0.20083618 0.20082855 0.31365967 0.47320557 0.31365967 0.7572174l0 0c0 0.59142303 -0.47946167 1.0708656 -1.0708618 1.0708656l0 0c-0.59143066 0 -1.0708923 -0.4794426 -1.0708923 -1.0708656z" fill-rule="evenodd"/><path fill="#ffffff" d="m584.1916 71.38845l0 0c0 -0.59142303 0.47943115 -1.0708618 1.0708618 -1.0708618l0 0c0.28405762 0 0.5563965 0.11281586 0.7572632 0.3136444c0.20080566 0.20082855 0.31359863 0.47320557 0.31359863 0.7572174l0 0c0 0.59142303 -0.47943115 1.0708694 -1.0708618 1.0708694l0 0c-0.59143066 0 -1.0708618 -0.4794464 -1.0708618 -1.0708694z" fill-rule="evenodd"/><path fill="#ffffff" d="m328.1916 71.38845l0 0c0 -0.59142303 0.47946167 -1.0708618 1.0708923 -1.0708618l0 0c0.28399658 0 0.55636597 0.11281586 0.75720215 0.3136444c0.20083618 0.20082855 0.31365967 0.47320557 0.31365967 0.7572174l0 0c0 0.59142303 -0.47946167 1.0708694 -1.0708618 1.0708694l0 0c-0.59143066 0 -1.0708923 -0.4794464 -1.0708923 -1.0708694z" fill-rule="evenodd"/><path fill="#ffffff" d="m376.1916 31.38845l0 0c0 -0.59142303 0.47946167 -1.0708656 1.0708923 -1.0708656l0 0c0.28399658 0 0.55636597 0.11282349 0.75720215 0.31365013c0.20083618 0.20082664 0.31365967 0.47320557 0.31365967 0.7572155l0 0c0 0.59142303 -0.47946167 1.0708656 -1.0708618 1.0708656l0 0c-0.59143066 0 -1.0708923 -0.4794426 -1.0708923 -1.0708656z" fill-rule="evenodd"/><path fill="#ffffff" d="m560.1916 15.388452l0 0c0 -0.59142303 0.47943115 -1.0708666 1.0708618 -1.0708666l0 0c0.28405762 0 0.5563965 0.11282349 0.7572632 0.31365013c0.20080566 0.20082569 0.31359863 0.4732046 0.31359863 0.75721645l0 0c0 0.59142303 -0.47943115 1.0708666 -1.0708618 1.0708666l0 0c-0.59143066 0 -1.0708618 -0.47944355 -1.0708618 -1.0708666z" fill-rule="evenodd"/><path fill="#ffffff" d="m784.1916 23.38845l0 0c0 -0.59142303 0.47943115 -1.0708656 1.0708618 -1.0708656l0 0c0.28405762 0 0.5563965 0.11282349 0.7572632 0.31365013c0.20080566 0.20082664 0.31359863 0.47320557 0.31359863 0.7572155l0 0c0 0.59142303 -0.47943115 1.0708675 -1.0708618 1.0708675l0 0c-0.59143066 0 -1.0708618 -0.4794445 -1.0708618 -1.0708675z" fill-rule="evenodd"/><path fill="#ffffff" d="m832.1916 127.38845l0 0c0 -0.59142303 0.47943115 -1.0708618 1.0708618 -1.0708618l0 0c0.28405762 0 0.5563965 0.11281586 0.7572632 0.3136444c0.20080566 0.20082855 0.31359863 0.47320557 0.31359863 0.7572174l0 0c0 0.59142303 -0.47943115 1.0708694 -1.0708618 1.0708694l0 0c-0.59143066 0 -1.0708618 -0.4794464 -1.0708618 -1.0708694z" fill-rule="evenodd"/><path fill="#ffffff" d="m888.1916 167.38846l0 0c0 -0.59143066 0.47943115 -1.0708771 1.0708618 -1.0708771l0 0c0.28405762 0 0.5563965 0.11282349 0.7572632 0.31365967c0.20080566 0.20082092 0.31359863 0.47320557 0.31359863 0.7572174l0 0c0 0.5914154 -0.47943115 1.0708618 -1.0708618 1.0708618l0 0c-0.59143066 0 -1.0708618 -0.4794464 -1.0708618 -1.0708618z" fill-rule="evenodd"/><path fill="#ffffff" d="m744.1916 151.38846l0 0c0 -0.59143066 0.47943115 -1.0708771 1.0708618 -1.0708771l0 0c0.28405762 0 0.5563965 0.11282349 0.7572632 0.31365967c0.20080566 0.20082092 0.31359863 0.47320557 0.31359863 0.7572174l0 0c0 0.5914154 -0.47943115 1.0708618 -1.0708618 1.0708618l0 0c-0.59143066 0 -1.0708618 -0.4794464 -1.0708618 -1.0708618z" fill-rule="evenodd"/><path fill="#ffffff" d="m712.1916 47.38845l0 0c0 -0.59142303 0.47943115 -1.0708656 1.0708618 -1.0708656l0 0c0.28405762 0 0.5563965 0.11282349 0.7572632 0.31364822c0.20080566 0.20082855 0.31359863 0.47320557 0.31359863 0.7572174l0 0c0 0.59142303 -0.47943115 1.0708656 -1.0708618 1.0708656l0 0c-0.59143066 0 -1.0708618 -0.4794426 -1.0708618 -1.0708656z" fill-rule="evenodd"/><path fill="#ffffff" d="m816.1916 215.38846l0 0c0 -0.59143066 0.47943115 -1.0708771 1.0708618 -1.0708771l0 0c0.28405762 0 0.5563965 0.11282349 0.7572632 0.31365967c0.20080566 0.20082092 0.31359863 0.47320557 0.31359863 0.7572174l0 0c0 0.5914154 -0.47943115 1.0708618 -1.0708618 1.0708618l0 0c-0.59143066 0 -1.0708618 -0.4794464 -1.0708618 -1.0708618z" fill-rule="evenodd"/><path fill="#ffffff" d="m80.191605 231.38846l0 0c0 -0.59143066 0.47943878 -1.0708771 1.0708618 -1.0708771l0 0c0.28401184 0 0.55638885 0.11282349 0.7572174 0.31365967c0.20082855 0.20082092 0.31365204 0.47320557 0.31365204 0.7572174l0 0c0 0.5914154 -0.4794464 1.0708618 -1.0708694 1.0708618l0 0c-0.59142303 0 -1.0708618 -0.4794464 -1.0708618 -1.0708618z" fill-rule="evenodd"/><path fill="#ffffff" d="m64.191605 159.38846l0 0c0 -0.59143066 0.47943878 -1.0708771 1.0708618 -1.0708771l0 0c0.28401184 0 0.55638885 0.11282349 0.7572174 0.31365967c0.20082855 0.20082092 0.31365204 0.47320557 0.31365204 0.7572174l0 0c0 0.5914154 -0.4794464 1.0708618 -1.0708694 1.0708618l0 0c-0.59142303 0 -1.0708618 -0.4794464 -1.0708618 -1.0708618z" fill-rule="evenodd"/><path fill="#ffffff" d="m264.1916 111.38845l0 0c0 -0.59142303 0.47946167 -1.0708618 1.0708923 -1.0708618l0 0c0.28399658 0 0.55636597 0.11281586 0.75720215 0.3136444c0.20083618 0.20082855 0.31365967 0.47320557 0.31365967 0.7572174l0 0c0 0.59142303 -0.47946167 1.0708694 -1.0708618 1.0708694l0 0c-0.59143066 0 -1.0708923 -0.4794464 -1.0708923 -1.0708694z" fill-rule="evenodd"/><path fill="#ffffff" d="m168.1916 31.38845l0 0c0 -0.59142303 0.4794464 -1.0708656 1.0708618 -1.0708656l0 0c0.28401184 0 0.5563965 0.11282349 0.7572174 0.31365013c0.20082092 0.20082664 0.3136444 0.47320557 0.3136444 0.7572155l0 0c0 0.59142303 -0.47943115 1.0708656 -1.0708618 1.0708656l0 0c-0.5914154 0 -1.0708618 -0.4794426 -1.0708618 -1.0708656z" fill-rule="evenodd"/><path fill="#ffffff" d="m64.191605 71.38845l0 0c0 -0.59142303 0.47943878 -1.0708618 1.0708618 -1.0708618l0 0c0.28401184 0 0.55638885 0.11281586 0.7572174 0.3136444c0.20082855 0.20082855 0.31365204 0.47320557 0.31365204 0.7572174l0 0c0 0.59142303 -0.4794464 1.0708694 -1.0708694 1.0708694l0 0c-0.59142303 0 -1.0708618 -0.4794464 -1.0708618 -1.0708694z" fill-rule="evenodd"/><path fill="#ffffff" d="m143.7454 26.44357l3.9670258 -0.8518677l0.8518677 -3.9670296l0.8518677 3.9670296l3.967041 0.8518677l-3.967041 0.8518696l-0.8518677 3.9670277l-0.8518677 -3.9670277z" fill-rule="evenodd"/><path fill="#ffffff" d="m391.7454 66.44357l3.967041 -0.8518753l0.8518677 -3.9670258l0.8518677 3.9670258l3.967041 0.8518753l-3.967041 0.8518677l-0.8518677 3.9670258l-0.8518677 -3.9670258z" fill-rule="evenodd"/><path fill="#ffffff" d="m664.2677 26.44357l3.967041 -0.8518677l0.8518677 -3.9670296l0.8518677 3.9670296l3.967041 0.8518677l-3.967041 0.8518696l-0.8518677 3.9670277l-0.8518677 -3.9670277z" fill-rule="evenodd"/><path fill="#ffffff" d="m787.8819 134.85301l3.967041 -0.8518677l0.8518677 -3.9670258l0.8518677 3.9670258l3.967041 0.8518677l-3.967041 0.8518677l-0.8518677 3.967041l-0.8518677 -3.967041z" fill-rule="evenodd"/><path fill="#ffffff" d="m11.440945 189.62466l3.9670286 -0.8518677l0.8518686 -3.9670258l0.8518696 3.9670258l3.9670296 0.8518677l-3.9670296 0.85188293l-0.8518696 3.9670258l-0.8518686 -3.9670258z" fill-rule="evenodd"/><path fill="#ffffff" d="m915.2493 55.38845l3.967041 -0.8518677l0.8518677 -3.9670296l0.8518677 3.9670296l3.967041 0.8518677l-3.967041 0.8518715l-0.8518677 3.9670258l-0.8518677 -3.9670258z" fill-rule="evenodd"/><path fill="#dda2ec" fill-opacity="0.2962" d="m126.315575 46.317513l-3.7950592 0.15234375l-3.6454391 0.45703888l-3.490364 0.7590141l-3.4930878 1.0609818l-3.3407364 1.3684006l-3.1883926 1.5180206l-2.8837051 1.9723434l-2.8864212 1.9750633l-2.7313538 2.2770348l-2.4293823 2.58173l-2.277031 2.581726l-1.9750671 2.8837051l-1.8227158 3.0360413l-1.5180206 3.1884003l-1.3656769 3.3407364l-1.0637054 3.4930878l-1.5180283 -0.45703888l-1.6703644 -0.30197144l-1.670372 -0.30469513l-1.8199997 0l-2.2797546 0.15234375l-2.1246872 0.30197906l-2.1246872 0.45703888l-1.9750671 0.7590103l-1.9723434 0.91135406l-1.8227158 1.2133331l-1.6703682 1.2160492l-1.5180244 1.3656769l-1.3656769 1.5180283l-1.216053 1.6703644l-1.2133293 1.8227234l-0.9113579 1.9723358l-0.7590103 1.9750671l-0.45703888 2.1246872l-0.30197525 2.127411l-0.15234375 2.2770386l0 1.6703644l0.30197144 1.8199997l0.3046913 1.5180206l0.454319 1.670372l151.37798 0l0 -0.60666656l0 -1.2133331l-0.30470276 -1.0637054l-0.15234375 -1.2160492l-0.4543152 -1.0609818l-0.4570465 -0.9113617l-0.60665894 -0.91135406l-0.6066742 -0.9113617l-0.7590027 -0.91135406l-0.9113617 -0.7590103l-0.9113617 -0.60666656l-0.91134644 -0.60666656l-0.9113617 -0.45703888l-1.0609894 -0.45432281l-1.2160492 -0.15234375l-1.0637054 -0.30469513l-1.2133331 0l-1.8227081 0.15235138l-1.6703796 0.3046875l-1.5180206 0.60666656l-1.3656769 0.9113617l-0.75901794 -1.5180283l-0.91134644 -1.3656769l-0.9113617 -1.368393l-1.0609894 -1.2133331l-1.0637054 -1.2160492l-1.2160492 -1.0609894l-1.2133331 -1.0637054l-1.3656769 -0.91135406l-1.368393 -0.9113617l-1.5180206 -0.7590103l-1.5180206 -0.60666656l-1.6703796 -0.4543152l-1.5180206 -0.45703888l-1.6703644 -0.30197144l-1.8227234 -0.30469513l-1.8199921 0l-0.75901794 -3.7950592l-1.2160492 -3.6454315l-1.3656769 -3.6427155l-1.6703644 -3.3407364l-1.9750671 -3.1884003l-2.2770386 -3.036045l-2.4293823 -2.7340736l-2.7313538 -2.58173l-3.0387726 -2.2770348l-3.0360413 -2.1246872l-3.340744 -1.8227158l-3.4903564 -1.5180244l-3.6454315 -1.0637054l-3.7950592 -0.9113579l-3.9474182 -0.60666656l-1.9750519 -0.15234375z" fill-rule="evenodd"/><path fill="#dda2ec" fill-opacity="0.2962" d="m914.1344 92.83794l2.7665405 0.18177795l2.5813599 0.37015533l2.5847168 0.5552368l2.3963013 0.92209625l2.3995972 0.9220886l2.2112427 1.288948l2.029419 1.4773254l2.029419 1.6591034l1.8443604 1.6591034l1.6625366 2.0292587l1.4741211 2.0292664l1.2923584 2.2143402l0.9221802 2.3961182l0.92211914 2.399414l0.7371216 2.5811996l0.37017822 2.5844955l2.029419 -0.9220886l2.029419 -0.9220886l2.2111816 -0.37016296l2.3996582 -0.18507385l1.8442993 0l1.6592407 0.37015533l1.6625366 0.3668518l1.4741211 0.5552368l1.477478 0.7370148l1.4741211 0.9220886l1.2923584 0.92209625l1.1072388 1.1071701l1.1040039 1.1071701l0.92211914 1.2922516l0.9221802 1.4740219l0.74035645 1.4773254l0.55200195 1.4740295l0.37017822 1.6590958l0.36688232 1.6624146l0 1.8441772l0 1.4740295l-105.32837 0l-0.55529785 -2.2143402l0 -2.3961182l0 -2.0292587l0.37017822 -2.0292664l0.55200195 -1.8441772l0.55529785 -1.8441849l0.92211914 -1.8441849l0.9221802 -1.6624069l1.1072388 -1.4740219l1.2890625 -1.4740295l1.477478 -1.292244l1.6592407 -1.1071777l1.477417 -0.9220886l1.8443604 -0.9220886l1.8442993 -0.7370148l1.8443604 -0.37015533l2.029419 -0.37016296l3.50354 0l1.477478 0.18508148l2.951538 0.5552368l0.9221802 -1.8441849l0.9221802 -1.8474884l1.1072388 -1.6591034l1.2890625 -1.6591034l1.2923584 -1.6591034l1.4741211 -1.292244l1.6625366 -1.4773331l1.6592407 -1.1038666l1.6592407 -1.1071701l1.8443604 -1.1071701l1.8475952 -0.73700714l2.026123 -0.7403183l2.029419 -0.5519333l2.029419 -0.37016296l2.2145386 -0.3668518z" fill-rule="evenodd"/><path fill="#dda2ec" fill-opacity="0.2962" d="m867.9307 38.317585l-3.6160278 0.13437271l-3.4816284 0.53507996l-3.4816284 0.6694565l-3.34729 1.0725632l-3.215271 1.2045364l-3.0809326 1.607647l-2.9441528 1.7396202l-2.6802368 2.0083618l-2.543457 2.1427307l-2.411438 2.4114723l-2.2747192 2.6778145l-1.8764038 2.6778145l-1.739624 2.946556l-1.607605 3.080925l-1.2045288 3.2128944l-0.9382324 3.3472672l-2.0083618 -1.3389053l-2.0083618 -1.3389053l-2.1427002 -1.0701675l-2.2770996 -0.8038254l-2.2770996 -0.80381775l-2.4091187 -0.5350876l-2.5458374 -0.2687416l-2.543396 -0.1343689l-2.6778564 0.1343689l-2.6801758 0.4031105l-2.543457 0.5350876l-2.411499 0.8038254l-2.4090576 1.0701599l-2.1427002 1.2045364l-2.1427612 1.3413086l-2.0083618 1.6052475l-1.8764038 1.7420197l-1.6052246 1.8739929l-1.607666 2.0083618l-1.3389282 2.1427307l-1.2045288 2.2770996l-0.9381714 2.4114761l-0.6694336 2.4090729l-0.5350952 2.5458374l-1.7420044 -0.2687378l-1.8740234 -0.1343689l-1.4732666 0.1343689l-1.4732666 0.1343689l-1.3389282 0.40071106l-1.3389282 0.40311432l-1.2069092 0.6694565l-1.2045288 0.66944885l-1.2045288 0.93579865l-0.9382324 0.9381943l-0.9381714 0.9381943l-0.935791 1.2045364l-0.6694336 1.2045364l-0.6694946 1.2069321l-0.40307617 1.338913l-0.40075684 1.3389053l-0.13433838 1.4732742l-0.13439941 1.4732819l177.03809 0l0.4006958 -1.6076508l0.13439941 -1.6076508l0.2687378 -1.6052475l0 -1.6076508l-0.13439941 -2.6778107l-0.40307617 -2.680214l-0.6694336 -2.4090729l-0.803833 -2.4114685l-1.2045288 -2.2771072l-1.2045898 -2.274704l-1.607605 -2.0083542l-1.607666 -1.8763962l-1.8739624 -1.6076431l-2.0083618 -1.6052475l-2.2770996 -1.2069397l-2.2770996 -1.2045364l-2.4091187 -0.8038254l-2.411438 -0.66944885l-2.6778564 -0.40071106l-2.6777954 -0.13437653l-2.8121948 0.13437653l-2.6801758 0.40071106l-1.0701904 -3.3472672l-1.2045288 -3.212902l-1.4732666 -3.080925l-1.7420654 -2.946556l-2.0083008 -2.8121834l-2.1427612 -2.5434418l-2.411499 -2.4114723l-2.543396 -2.2771034l-2.8121948 -2.0083618l-2.9465942 -1.7396202l-3.0784912 -1.607647l-3.215332 -1.2045364l-3.347229 -1.0725632l-3.34729 -0.6694565l-3.6160278 -0.53507996l-3.6159668 -0.13437271z" fill-rule="evenodd"/><path fill="#dda2ec" fill-opacity="0.2962" d="m34.730625 21.627417l-2.2025604 0.14470291l-2.0551987 0.2946701l-2.0578308 0.44200325l-1.907835 0.7340412l-1.9104652 0.7340393l-1.7604713 1.0260792l-1.6157379 1.1760445l-1.6157379 1.3207474l-1.4683762 1.3207474l-1.3236427 1.6154175l-1.1736469 1.6154137l-1.0289145 1.7627525l-0.7341881 1.9074554l-0.7341871 1.9100838l-0.58682346 2.0547867l-0.29472733 2.0574226l-1.6157389 -0.7340431l-1.6157389 -0.7340393l-1.7604704 -0.2946701l-1.9104662 -0.14733505l-1.468375 0l-1.3210108 0.2946701l-1.3236426 0.29203796l-1.1736473 0.44200134l-1.1762787 0.58670807l-1.1736473 0.7340393l-1.0289149 0.7340431l-0.881551 0.88137436l-0.8789196 0.88137436l-0.7341876 1.0287094l-0.7341876 1.1734161l-0.5894551 1.1760406l-0.4394598 1.1734161l-0.29472733 1.3207474l-0.29209566 1.3233757l0 1.4680824l0 1.1734161l83.85788 0l0.4420929 -1.7627525l0 -1.9074554l0 -1.6154137l-0.29473114 -1.6154175l-0.43945312 -1.4680824l-0.4420929 -1.4680824l-0.7341919 -1.4680824l-0.73418427 -1.3233757l-0.88155365 -1.1734161l-1.0262833 -1.1734123l-1.1762772 -1.0287094l-1.3210144 -0.88137436l-1.1762772 -0.7340393l-1.4683762 -0.7340431l-1.4683685 -0.58670807l-1.4683762 -0.2946663l-1.6157417 -0.2946701l-2.789383 0l-1.176281 0.14733505l-2.349926 0.44200134l-0.7341881 -1.4680786l-0.73418427 -1.4707146l-0.88155365 -1.3207474l-1.0262833 -1.3207474l-1.0289154 -1.3207474l-1.173645 -1.0287094l-1.3236427 -1.1760445l-1.3210106 -0.8787441l-1.3210106 -0.88137627l-1.4683762 -0.88137436l-1.4710083 -0.58670616l-1.6131058 -0.5893383l-1.6157379 -0.43937302l-1.6157379 -0.2946682l-1.7631035 -0.29203796z" fill-rule="evenodd"/><path fill="#ffd300" d="m713.37537 111.273476l-0.13604736 0.04471588l-0.18255615 0.091285706l-0.13598633 0.18257141l-0.13598633 0.22728729l-3.0944214 7.0979996l-0.13604736 0.22727966l-0.22912598 0.27386475l-0.22729492 0.22727966l-0.27197266 0.22728729l-0.27386475 0.18257141l-0.31860352 0.13600159l-0.27197266 0.13600159l-0.31854248 0.046569824l-7.64386 0.77313995l-0.27386475 0.04471588l-0.22729492 0.091285706l-0.13598633 0.091285706l-0.091308594 0.18257141l0 0.13600159l0.04473877 0.18257141l0.09124756 0.18070984l0.22729492 0.22728729l5.734314 5.097145l0.22729492 0.22728729l0.18066406 0.27199554l0.13787842 0.318573l0.13598633 0.318573l0.091308594 0.318573l0.044677734 0.318573l0 0.318573l-0.044677734 0.31855774l-1.6375732 7.552582l-0.046569824 0.2738495l0.046569824 0.18258667l0.044677734 0.18070984l0.091308594 0.1378479l0.18255615 0.04472351l0.1807251 0.044708252l0.22729492 -0.08943176l0.22729492 -0.091278076l6.6434326 -3.914154l0.27386475 -0.13598633l0.31854248 -0.091293335l0.36328125 -0.044708252l0.637146 0l0.36328125 0.044708252l0.31860352 0.091293335l0.27386475 0.13598633l6.6434326 3.914154l0.22723389 0.091278076l0.22729492 0.08943176l0.18255615 -0.044708252l0.1807251 -0.04472351l0.091308594 -0.1378479l0.046569824 -0.18070984l0.04473877 -0.18258667l-0.04473877 -0.2738495l-1.6394653 -7.552582l-0.044677734 -0.31855774l0 -0.318573l0.044677734 -0.318573l0.091308594 -0.318573l0.13598633 -0.318573l0.13787842 -0.318573l0.1807251 -0.27199554l0.22729492 -0.22728729l5.734253 -5.097145l0.22729492 -0.22728729l0.091308594 -0.18070984l0.044677734 -0.18257141l0 -0.13600159l-0.09124756 -0.18257141l-0.13604736 -0.091285706l-0.22723389 -0.091285706l-0.27386475 -0.04471588l-7.64386 -0.77313995l-0.31860352 -0.046569824l-0.27197266 -0.13600159l-0.31860352 -0.13600159l-0.27386475 -0.18257141l-0.27197266 -0.22728729l-0.22729492 -0.22727966l-0.22729492 -0.27386475l-0.13781738 -0.22727966l-3.0925903 -7.0979996l-0.13787842 -0.22728729l-0.13598633 -0.18257141l-0.18255615 -0.091285706l-0.13598633 -0.04471588z" fill-rule="evenodd"/><path fill="#8e7cc3" d="m584.1233 92.94061l-6.1309204 7.942299l-6.8547363 7.9423065l-7.216736 8.119614l-7.940613 8.119621l-8.11792 7.9349213l-8.117859 7.2182617l-7.9332275 6.8562317l-7.940613 6.1395874l3.250122 0.9013519l3.0654297 0.71665955l3.2427368 0.36203003l3.250122 0.36201477l3.250061 0l3.2427368 -0.17732239l3.0654297 -0.36201477l3.250122 -0.7240448l3.0654297 -0.71665955l3.250122 -1.0860596l2.8881836 -1.263382l3.0654297 -1.4406891l2.8881836 -1.8101044l2.7034912 -1.8027191l2.7034912 -2.1647491l2.526245 -2.3420563l2.348938 -2.5267487l2.1643066 -2.7114716l1.8023071 -2.704071l1.8023071 -2.888794l1.447815 -3.0660934l1.2631226 -2.8887787l1.0784302 -3.2434158l0.72387695 -3.0734863l0.72387695 -3.2434158l0.35455322 -3.066101l0.18469238 -3.250801l0 -3.250801l-0.36193848 -3.2434158l-0.36193848 -3.2508087l-0.723938 -3.0660934l-0.90112305 -3.250801z" fill-rule="evenodd"/><path fill="#8e7cc3" d="m578.71625 59.922794l0.71655273 0.3620186l0.72387695 0.17731857l0.5391846 0.53933716l0.36193848 0.5467262l0.3619995 0.53933716l0.1772461 0.724041l0.18469238 0.71665573l0 1.8101044l-0.5392456 1.9800339l-0.72387695 2.526764l-1.0858154 2.526764l-1.4404297 2.8887787l-1.8023071 3.066101l-1.8097534 -1.9874268l-1.8023071 -2.1647415l-2.526245 -2.3420563l-2.7034912 -1.9874191l-2.7034912 -1.9800339l-2.7108765 -1.6254044l3.250122 -1.9874191l3.2426758 -1.6254044l2.7109375 -1.2633781l2.7034912 -0.90135956l2.1642456 -0.53933716zm-28.504944 14.074497l0.5392456 0.17731476l0.9011841 0.7240448l0.72387695 0.90135956l0.1772461 0.53933716l0 0.54673004l0 0.53933716l-0.1772461 0.53933716l-0.72387695 0.90135956l-0.9011841 0.7240372l-0.5392456 0.17732239l-1.0858154 0l-0.5391846 -0.17732239l-0.9011841 -0.7240372l-0.72387695 -0.90135956l-0.17730713 -0.53933716l0 -0.53933716l0 -0.54673004l0.17730713 -0.53933716l0.72387695 -0.90135956l0.9011841 -0.7240448l0.5391846 -0.17731476zm-11.367981 -1.9874191l0.9011841 0.18470001l0.72387695 0.17732239l0.72387695 0.36201477l0.7164917 0.53933716l0.54663086 0.7240448l0.35455322 0.7240448l0.36193848 0.7166519l0 0.90135956l0 0.9087448l-0.36193848 0.90135956l-0.35455322 0.71665955l-0.54663086 0.5467224l-0.7164917 0.53933716l-0.72387695 0.3620224l-0.72387695 0.3620224l-1.8023682 0l-0.72387695 -0.3620224l-0.7164917 -0.3620224l-0.72387695 -0.53933716l-0.5392456 -0.5467224l-0.36193848 -0.71665955l-0.36193848 -0.90135956l0 -0.9087448l0 -0.90135956l0.36193848 -0.7166519l0.36193848 -0.7240448l0.5392456 -0.7240448l0.72387695 -0.53933716l0.7164917 -0.36201477l0.72387695 -0.17732239l0.9011841 -0.18470001zm6.67749 10.646378l0.5392456 0.18470764l0.9011841 0.7166519l0.5391846 0.90135956l0.18469238 0.5467224l0 0.53933716l0 0.5393448l-0.18469238 0.5467224l-0.5391846 0.90135956l-0.9011841 0.7166519l-0.5392456 0.18470764l-1.2631226 0l-0.5391846 -0.18470764l-0.90856934 -0.7166519l-0.5392456 -0.90135956l-0.1772461 -0.5467224l-0.18469238 -0.5393448l0.18469238 -0.53933716l0.1772461 -0.5467224l0.5392456 -0.90135956l0.90856934 -0.7166519l0.5391846 -0.18470764zm-48.352753 48.363083l1.625061 2.7040863l1.9869995 2.704071l1.9869995 2.7114716l2.3415527 2.5267487l2.1642761 1.8027191l1.9869995 1.8027191l-3.0654602 1.8027191l-2.888153 1.4480896l-2.5262146 1.0786743l-2.526245 0.7240448l-1.9869995 0.53933716l-1.8023376 0l-0.72387695 -0.17732239l-0.7164917 -0.18470764l-0.54663086 -0.36201477l-0.5392151 -0.35462952l-0.5392151 -0.5467224l-0.18466187 -0.71665955l-0.35455322 -0.7240448l0 -0.7240448l0 -1.9800262l0.5392151 -2.1647491l0.90115356 -2.7114563l1.2631226 -2.7040863l1.625061 -3.2507935l1.9796143 -3.2434235zm94.71115 -83.54564l-1.9796143 0.17731857l-2.1642456 0.3620186l-2.348938 0.7240448l-2.526245 0.90135956l-2.7034912 1.0786743l-2.8881836 1.263382l-2.8881836 1.6254005l-3.0654297 1.6254005l-6.492798 4.1521606l-7.0321045 4.86882l-3.250122 -1.263382l-3.4273682 -1.0786743l-3.4273682 -0.7240448l-3.4274292 -0.53933716l-3.4273682 -0.3620224l-3.6120605 0l-3.4273682 0.3620224l-3.4273682 0.35463333l-3.4274292 0.724041l-3.4273682 1.0860634l-3.2427368 1.2633858l-3.250122 1.4406967l-3.250122 1.8027115l-2.8807373 2.1647415l-2.8881836 2.1647415l-2.888153 2.5267563l-2.526245 2.8887863l-2.1642761 2.8887787l-2.1642761 2.8887863l-1.8023376 3.2434158l-1.4477539 3.250801l-1.2631226 3.250801l-1.0784302 3.4281235l-0.7239075 3.4281158l-0.36193848 3.4281235l-0.36193848 3.4281158l0 3.6054382l0.36193848 3.4281158l0.54660034 3.4281235l0.7165222 3.4281158l1.0858154 3.4281235l1.2631226 3.250801l-4.875183 7.033554l-4.1438904 6.501602l-1.6250305 3.066101l-1.625061 2.8887787l-1.2631226 2.8814087l-1.0858154 2.7114563l-0.9011841 2.526764l-0.7164917 2.3420563l-0.36193848 2.164734l-0.18466187 1.9874268l0 1.6253967l0.36193848 1.6180115l0.54660034 1.263382l0.90115356 1.0860748l0.7165222 0.72402954l1.0858154 0.53933716l1.0784607 0.36203003l1.263092 0.17732239l2.710907 0l1.625061 -0.36203003l1.8023376 -0.35462952l3.7893066 -1.0860596l4.1438904 -1.8027191l4.5132446 -2.1647491l4.6904907 -2.8887787l5.2297363 -3.2508087l5.2297363 -3.605423l5.598999 -4.152176l5.768982 -4.50679l5.9536133 -4.8762054l5.9536133 -5.230835l5.9536133 -5.592865l6.1308594 -5.954872l5.9536133 -6.1395874l5.591675 -5.9548798l5.2371216 -5.9548798l4.867798 -5.9548798l4.5131836 -5.7701797l4.143921 -5.5928574l3.6120605 -5.230835l3.250061 -5.238228l2.8807983 -4.691498l2.1643066 -4.506798l1.8096924 -4.1521606l1.0784302 -3.790142l0.36193848 -1.8027191l0.36193848 -1.6254005l0 -1.4406967l0 -1.263382l-0.18463135 -1.2633781l-0.35455322 -1.0860634l-0.54663086 -1.0786781l-0.7164917 -0.724041l-1.0858154 -0.90135956l-1.2631226 -0.53933716l-1.625061 -0.3620224z" fill-rule="evenodd"/><path fill="#b1e1f5" d="m188.72533 205.91957l0.80430603 0.3688202l0.8775482 0.51020813l0.74183655 0.5805359l0.6004486 0.6537781l0.70347595 0.68647766l0.56773376 0.7568054l0.53367615 0.86413574l0.3950348 0.92878723l0.29493713 0.90174866l0.14926147 0.97361755l0.18762207 0.8676605l0.04762268 0.936615l-0.08947754 1.0112305l-0.15841675 0.8711853l-0.2998047 0.94444275l-0.26708984 0.8414154l-0.37304688 0.80303955l-0.51013184 0.877655l-0.57907104 0.7376251l-0.6536865 0.60050964l-0.6820984 0.7049103l-0.7609863 0.56643677l-0.8597107 0.5350952l-5.49234 2.7595062l-0.65722656 0.2544098l-0.6231537 0.14710999l-0.6977539 0.009994507l-0.7666931 -0.13005066l-0.59399414 -0.30203247l-0.564209 -0.41070557l-0.42419434 -0.4796753l-0.39012146 -0.58699036l-5.649948 -10.91452l-0.25439453 -0.6573181l-0.14709473 -0.62323l-0.011367798 -0.69355774l0.09301758 -0.6651306l0.34033203 -0.7000122l0.4092865 -0.5599823l0.479599 -0.4242401l0.5882721 -0.39445496l5.4163666 -2.8923035l0.9343262 -0.397995l0.9002533 -0.29066467l0.9705658 -0.15492249l0.86753845 -0.18762207l0.9407959 -0.04624939l1.0110931 0.08950806l0.86972046 0.16275024zm-28.621918 19.997742l0.38793945 0.23660278l0.28063965 0.2025299l0.35388184 0.3439331l0.24658203 0.30984497l0.110839844 0.38017273l0.07678223 0.4874878l0.003540039 0.34609985l-0.026245117 0.45477295l-0.24085999 0.3866272l-0.23519897 0.38371277l-0.3111725 0.250885l-0.3097992 0.24659729l-14.363998 7.4420013l-0.41282654 0.21388245l-0.3801117 0.1108551l-0.45336914 -0.030548096l-0.8370056 -0.2657776l-0.3879547 -0.23660278l-0.24656677 -0.30986023l-0.21386719 -0.4128723l-0.2181549 -0.4142456l-0.10949707 -0.38446045l0.029174805 -0.4491272l0.13354492 -0.42071533l0.13354492 -0.42070007l0.23521423 -0.3836975l0.31115723 -0.250885l0.41711426 -0.21252441l14.364014 -7.4420013l0.3801117 -0.1108551l0.3801117 -0.1108551l0.45336914 0.030548096l0.44906616 0.029174805zm39.759277 -29.2724l-2.3377228 -0.628891l-2.3390808 -0.6246033l-2.408783 -0.41990662l-2.4712677 -0.20819092l-2.3682404 -0.17547607l-2.327713 0.06893921l-2.188446 0.34472656l-1.0778809 0.12084961l-0.9329529 0.39369202l-1.0032654 0.25794983l-0.8313141 0.43069458l-28.03807 14.52655l-22.118683 -7.0234985l-0.6593933 -0.095962524l-0.4547119 -0.026245117l-0.4874344 0.07678223l-0.30980682 0.24658203l-0.099479675 0.313385l-0.026237488 0.4547882l0.07814789 0.48320007l0.24874115 0.66023254l7.117981 13.568665l-1.7940369 0.93307495l-5.9941635 -0.75032043l-0.6977539 0.009994507l-0.5890808 0.039779663l-0.44689178 0.3211975l-0.30980682 0.24659729l-0.13354492 0.42071533l-0.06324005 0.55644226l0.07678223 0.4874878l0.25440216 0.6573181l19.174614 37.017883l0.39442444 0.5883789l0.34957886 0.3425598l0.4909668 0.26931763l0.4206543 0.13354492l0.37875366 -0.106536865l0.52149963 -0.18411255l0.3765869 -0.4569397l0.40927124 -0.55999756l2.8447876 -5.329773l1.7940369 -0.93307495l6.980896 13.64328l0.39012146 0.5869751l0.35388184 0.3439331l0.383667 0.23522949l0.31762695 0.100860596l0.38012695 -0.110839844l0.34249878 -0.3496399l0.23657227 -0.3880005l0.30763245 -0.59698486l7.0221405 -22.121368l28.033783 -14.527908l0.8299408 -0.42640686l0.7907715 -0.6751251l0.89671326 -0.6367645l0.6820984 -0.7049103l1.5439148 -1.5890198l1.4003754 -1.8661652l1.2213898 -2.0316925l1.2568207 -2.1432953l1.0494232 -2.2044373l0.83480835 -2.272583l0.8361664 -2.2768707l0.66500854 -2.0949402l0.5292816 -2.0246277l0.38928223 -1.9556732l0.18540955 -1.6707001l0.120010376 -1.4646454l-0.088150024 -1.1810455l-0.17979431 -0.52020264l-0.14492798 -0.2728424l-0.14353943 -0.2771454l-0.31982422 -0.45124817l-0.9151459 -0.74897766l-1.2612152 -0.7454529l-1.4744568 -0.81788635l-1.8175964 -0.8087158l-1.9589539 -0.7354584z" fill-rule="evenodd"/><path fill="#b1e1f5" d="m130.8382 239.5911l-0.7667084 -0.13005066l-0.800766 -0.022720337l-0.83348083 0.080322266l-0.79294586 0.32473755l-0.9307785 0.7440796l-1.4103851 1.1683197l-3.1162643 3.2824402l-2.8093872 3.030182l-1.2341232 1.3424225l0 0l1.8040466 -0.23522949l4.0998 -0.5458832l4.475624 -0.6580963l1.767807 -0.478302l1.14328 -0.3269043l0.72398376 -0.46476746l0.54637146 -0.6345978l0.44335938 -0.66729736l0.34033203 -0.7000122l0.12571716 -0.76815796l0.022705078 -0.80088806l-0.11437988 -0.7262573l-0.32336426 -0.797348l-0.46043396 -0.72273254l-0.53149414 -0.5137329l-0.66722107 -0.44343567l-0.70129395 -0.3360901z" fill-rule="evenodd"/><path fill="#b1e1f5" d="m134.38127 248.79225l-0.6650543 -0.09303284l-0.6934509 0.011352539l-0.6231537 0.14709473l-0.6615143 0.25306702l-0.72262573 0.46047974l-0.71617126 0.81222534l-0.7872162 1.021225l-0.8199463 1.1242371l-1.2227478 2.0359802l-0.47605896 0.77033997l0 0l0.9770355 0.19682312l2.4023132 0.06816101l1.2541351 0.053268433l1.283905 -0.05543518l1.2178955 -0.18980408l0.7602234 -0.22169495l0.58691406 -0.39016724l0.5122986 -0.52726746l0.37794495 -0.46124268l0.19895935 -0.62677l0.20031738 -0.63105774l-0.011367798 -0.6935425l-0.14709473 -0.62324524l-0.25439453 -0.65730286l-0.39012146 -0.58699036l-0.42419434 -0.4796753l-0.564209 -0.41070557l-0.59262085 -0.3063202z" fill-rule="evenodd"/><path fill="#b1e1f5" d="m125.05908 231.98601l-0.5890808 0.039779663l-0.7318268 0.11730957l-0.6558533 0.25013733l-0.61668396 0.49884033l-0.860466 0.8798218l-0.7829361 1.022583l-0.6828537 1.0496521l-1.3257675 2.0032654l-0.40281677 0.9117279l0.9037857 0.05543518l2.368248 0.17547607l1.3898544 -0.017059326l1.2882004 -0.05406189l1.0735855 -0.12220764l0.7972336 -0.32337952l0.58690643 -0.39015198l0.479599 -0.4242401l0.41064453 -0.56427l0.30197906 -0.5940552l0.0973053 -0.6637726l-0.011367798 -0.69355774l-0.14709473 -0.62323l-0.2530365 -0.66160583l-0.39148712 -0.5826874l-0.42282867 -0.483963l-0.56557465 -0.40641785z" fill-rule="evenodd"/><path fill="#ffd300" d="m402.78064 75.5023l-0.18319702 -0.07745361l-0.27453613 -0.071250916l-0.30917358 0.06686401l-0.3500061 0.11366272l-9.724152 4.6028137l-0.35003662 0.11366272l-0.49005127 0.077308655l-0.44558716 0.030258179l-0.4923706 -0.0105896l-0.4534912 -0.05909729l-0.45770264 -0.1486969l-0.40899658 -0.106147766l-0.37600708 -0.24230194l-8.707764 -6.1744156l-0.32751465 -0.20340729l-0.32131958 -0.112098694l-0.22576904 -0.028694153l-0.26235962 0.10771179l-0.12426758 0.14235687l-0.11999512 0.23196411l-0.06954956 0.27256775l0.030273438 0.4455719l1.3455505 10.574623l0.030273438 0.4455719l-0.05935669 0.44982147l-0.14675903 0.45942688l-0.14868164 0.45772552l-0.1954956 0.41687775l-0.2442627 0.37432098l-0.29107666 0.3334732l-0.3378601 0.2926178l-8.614471 6.409691l-0.2989502 0.24411774l-0.11807251 0.23366547l-0.11828613 0.23001099l-0.030395508 0.22771454l0.15026855 0.21360779l0.14828491 0.21190643l0.3196411 0.11405182l0.32131958 0.112098694l10.530273 1.9724579l0.4109192 0.10784912l0.41687012 0.19550323l0.42114258 0.28511047l0.66693115 0.5821152l0.3394165 0.37871552l0.25009155 0.38661194l0.16241455 0.3925705l3.3780518 10.166908l0.1545105 0.30321503l0.15621948 0.3012619l0.23196411 0.12000275l0.23001099 0.11830139l0.22149658 -0.060905457l0.21386719 -0.14661407l0.21362305 -0.15026093l0.20339966 -0.32751465l5.1841736 -9.403687l0.2442627 -0.37432098l0.29107666 -0.3334732l0.3378601 -0.2926178l0.38659668 -0.25006866l0.43344116 -0.20922089l0.43536377 -0.20751953l0.4376526 -0.11961365l0.44558716 -0.030258179l10.659454 -0.09649658l0.44555664 -0.030258179l0.26065063 -0.1057663l0.21362305 -0.15026093l0.12426758 -0.14235687l0.07122803 -0.27452087l-0.05895996 -0.21980286l-0.1545105 -0.30321503l-0.24581909 -0.29701233l-7.2950134 -7.793022l-0.29092407 -0.33981323l-0.16046143 -0.3908615l-0.20922852 -0.43341827l-0.11984253 -0.44132233l-0.077056885 -0.4864273l-0.030273438 -0.4455719l0.012298584 -0.49432373l0.06335449 -0.3638687l3.2477722 -10.255486l0.06335449 -0.3638687l0.02444458 -0.31536865l-0.10772705 -0.26235962l-0.101501465 -0.17105865z" fill-rule="evenodd"/><path fill="#ffd300" d="m436.23596 95.885925l-0.10116577 0.10126495l-0.12173462 0.16384888l-0.038970947 0.22429657l-0.018798828 0.26419067l0.4416504 7.7303696l-0.018798828 0.26419067l-0.0809021 0.34778595l-0.100250244 0.3053894l-0.14016724 0.32556152l-0.1619873 0.28649902l-0.22293091 0.26511383l-0.18133545 0.24410248l-0.26327515 0.185318l-6.472229 4.139244l-0.22418213 0.16348267l-0.16165161 0.184021l-0.08013916 0.1428299l9.1552734E-4 0.20411682l0.06137085 0.12136078l0.122283936 0.14274597l0.16299438 0.12006378l0.3053894 0.10025787l7.4171753 1.9608917l0.3053894 0.10025787l0.28399658 0.16117096l0.26678467 0.22206879l0.2651062 0.22291565l0.22521973 0.24308777l0.18365479 0.26410675l0.14376831 0.28427887l0.10385132 0.30445862l1.9468384 7.478607l0.08200073 0.26539612l0.1239624 0.14190674l0.12142944 0.14108276l0.14367676 0.08182526l0.18310547 -0.0424881l0.181427 -0.041641235l0.16247559 -0.18236542l0.1616211 -0.184021l4.162079 -6.4907227l0.18301392 -0.24493408l0.24310303 -0.22521973l0.3039856 -0.20383453l0.568573 -0.28751373l0.34436035 -0.12403107l0.32546997 -0.062294006l0.30575562 -0.0022201538l7.694641 0.4949646l0.24401855 -0.021102905l0.24316406 -0.022758484l0.14273071 -0.122291565l0.14108276 -0.1214447l0.019256592 -0.16421509l-0.039978027 -0.18227386l-0.04248047 -0.18309784l-0.16348267 -0.22420502l-4.8710938 -5.9998474l-0.18365479 -0.26410675l-0.14376831 -0.28427887l-0.10385132 -0.30445862l-0.062286377 -0.3254776l-0.022399902 -0.34564972l-0.020751953 -0.34648895l0.038513184 -0.32427216l0.10028076 -0.30538177l2.8169556 -7.1361313l0.100250244 -0.30538177l-9.1552734E-5 -0.20245361l-0.04248047 -0.18309784l-0.06137085 -0.12136078l-0.16384888 -0.12172699l-0.16253662 -0.020095825l-0.24401855 0.021102905l-0.26455688 0.08368683l-7.169983 2.7593918l-0.30529785 0.10219574l-0.30410767 0.0013809204l-0.3456421 0.022399902l-0.32678223 -0.039344788l-0.34527588 -0.080078125l-0.3053894 -0.10025787l-0.3263855 -0.14182281l-0.22558594 -0.14060974l-5.9627075 -4.938469l-0.22558594 -0.14060974l-0.20373535 -0.10155487l-0.20413208 9.3078613E-4l-0.14154053 0.021469116z" fill-rule="evenodd"/><path fill="#ffd300" d="m617.4017 119.213974l-0.092285156 -0.054512024l-0.14147949 -0.057762146l-0.16992188 0.013519287l-0.1951294 0.035591125l-5.52417 1.7604752l-0.1951294 0.035583496l-0.26727295 0.0061187744l-0.24017334 -0.015815735l-0.26220703 -0.041000366l-0.23797607 -0.0641098l-0.23376465 -0.11227417l-0.21087646 -0.08604431l-0.18341064 -0.15641022l-4.2077637 -3.922821l-0.16033936 -0.13214874l-0.16357422 -0.08293915l-0.11853027 -0.03152466l-0.14782715 0.03869629l-0.07659912 0.06711578l-0.08074951 0.11528015l-0.05670166 0.14059448l-0.015808105 0.24015045l-0.04034424 5.7446136l-0.015808105 0.24015808l-0.063964844 0.23600006l-0.11138916 0.23484802l-0.11224365 0.23381042l-0.13433838 0.2086258l-0.15734863 0.18239594l-0.17938232 0.15721893l-0.20147705 0.13204956l-5.061157 2.805191l-0.17718506 0.108932495l-0.079833984 0.11632538l-0.07965088 0.114364624l-0.032592773 0.1194458l0.064941406 0.1248703l0.063964844 0.1238327l0.16253662 0.083854675l0.16357422 0.08293152l5.482788 1.8093185l0.21173096 0.08709717l0.20861816 0.13433838l0.20446777 0.18251038l0.31445312 0.3587799l0.15411377 0.2266388l0.10583496 0.22444153l0.058532715 0.221344l1.074585 5.6727295l0.06072998 0.17303467l0.061828613 0.17211914l0.11529541 0.08074951l0.11431885 0.079696655l0.122680664 -0.01663208l0.12475586 -0.06295776l0.12487793 -0.06492615l0.13214111 -0.16033936l3.4439087 -4.650528l0.15734863 -0.18240356l0.17938232 -0.1572113l0.20141602 -0.13204956l0.2244873 -0.1058197l0.246521 -0.08062744l0.24737549 -0.079589844l0.2423706 -0.032485962l0.24017334 0.015823364l5.7002563 0.7135315l0.24017334 0.015823364l0.14678955 -0.03778076l0.12487793 -0.06492615l0.07659912 -0.06712341l0.057739258 -0.14151001l-0.015686035 -0.12162781l-0.060791016 -0.17303467l-0.10998535 -0.17628479l-3.336975 -4.6859436l-0.13104248 -0.20237732l-0.057617188 -0.22028351l-0.08062744 -0.24651337l-0.032348633 -0.2443161l-0.006286621 -0.26533508l0.015808105 -0.24015808l0.042053223 -0.26314545l0.05999756 -0.18980408l2.4707031 -5.2444687l0.05999756 -0.18980408l0.03564453 -0.16668701l-0.03869629 -0.1478653l-0.041931152 -0.09864807z" fill-rule="evenodd"/><path fill="#ffd300" d="m504.45438 19.13458l-0.06826782 0.06832123l-0.082092285 0.11054039l-0.026306152 0.15131378l-0.012664795 0.17823029l0.29815674 5.215105l-0.0126953125 0.17823029l-0.05456543 0.23462868l-0.06762695 0.20602417l-0.09454346 0.21963501l-0.10928345 0.1932869l-0.1503601 0.17885971l-0.12234497 0.16468239l-0.17758179 0.1250267l-4.3662415 2.7926197l-0.15124512 0.11029434l-0.10903931 0.12415123l-0.05407715 0.09635925l6.4086914E-4 0.13770103l0.041412354 0.08187103l0.08248901 0.09629822l0.10998535 0.08099365l0.20599365 0.06762886l5.0039062 1.32267l0.20602417 0.06762886l0.19158936 0.108724594l0.17999268 0.14980698l0.17883301 0.15037537l0.15194702 0.16398811l0.123931885 0.17816925l0.09698486 0.19178009l0.07006836 0.20539093l1.3135681 5.0452156l0.055358887 0.17904282l0.083618164 0.09572983l0.08190918 0.09517288l0.096954346 0.055202484l0.12350464 -0.028671265l0.122406006 -0.02809906l0.10958862 -0.123031616l0.10903931 -0.12415314l2.8076782 -4.3789215l0.12347412 -0.16524887l0.16397095 -0.1519432l0.20507812 -0.13751984l0.38357544 -0.19398117l0.2322998 -0.083683014l0.21957397 -0.042037964l0.20629883 -0.0015029907l5.190979 0.33371353l0.16461182 -0.01424408l0.1640625 -0.015365601l0.09631348 -0.08250046l0.09515381 -0.08193588l0.013000488 -0.11078262l-0.026977539 -0.12296677l-0.028686523 -0.12352371l-0.11029053 -0.15124893l-3.286316 -4.0475254l-0.12390137 -0.17816734l-0.09698486 -0.19178009l-0.07006836 -0.20539284l-0.042053223 -0.21957207l-0.015136719 -0.23318481l-0.013977051 -0.2337532l0.025939941 -0.21875954l0.06768799 -0.20602417l1.9002075 -4.8143005l0.06762695 -0.20602226l-6.1035156E-5 -0.13658142l-0.028686523 -0.123521805l-0.04144287 -0.08187103l-0.11053467 -0.08211517l-0.10961914 -0.013549805l-0.16461182 0.014242172l-0.17852783 0.056461334l-4.836975 1.8617554l-0.20596313 0.06895065l-0.20513916 9.384155E-4l-0.23318481 0.015119553l-0.22045898 -0.026533127l-0.23294067 -0.054014206l-0.20599365 -0.06762886l-0.22021484 -0.095666885l-0.15219116 -0.09485245l-4.0227356 -3.3314629l-0.15219116 -0.09485245l-0.13745117 -0.06850433l-0.13769531 6.2942505E-4l-0.0954895 0.01448822z" fill-rule="evenodd"/><path fill="#000000" fill-opacity="0.0" d="m896.6192 8.39895E-5l57.606323 0l0 41.322834l-57.606323 0z" fill-rule="evenodd"/><path fill="#ffffff" d="m944.6554 15.880875l0 0.71875l-4.203125 10.046875l-0.859375 -0.28125l4.09375 -9.703125l-4.96875 0l0 -0.78125l5.9375 0z" fill-rule="nonzero"/></g></svg>